<?xml version="1.0" encoding="UTF-8" ?>
<svg version="1.1" width="68" height="34" xmlns="http://www.w3.org/2000/svg" shape-rendering="crispEdges">
<rect x="24" y="15" width="1" height="1" fill="#5A336A" />
<rect x="25" y="15" width="1" height="1" fill="#9050A8" />
<rect x="26" y="15" width="1" height="1" fill="#9050A8" />
<rect x="27" y="15" width="1" height="1" fill="#9050A8" />
<rect x="58" y="15" width="1" height="1" fill="#76428A" />
<rect x="59" y="15" width="1" height="1" fill="#76428A" />
<rect x="60" y="15" width="1" height="1" fill="#76428A" />
<rect x="61" y="15" width="1" height="1" fill="#5A336A" />
<rect x="22" y="16" width="1" height="1" fill="#5A336A" />
<rect x="23" y="16" width="1" height="1" fill="#5A336A" />
<rect x="24" y="16" width="1" height="1" fill="#F22233" />
<rect x="25" y="16" width="1" height="1" fill="#9BADB7" />
<rect x="26" y="16" width="1" height="1" fill="#9BADB7" />
<rect x="27" y="16" width="1" height="1" fill="#F22233" />
<rect x="28" y="16" width="1" height="1" fill="#9050A8" />
<rect x="29" y="16" width="1" height="1" fill="#9050A8" />
<rect x="56" y="16" width="1" height="1" fill="#9050A8" />
<rect x="57" y="16" width="1" height="1" fill="#9050A8" />
<rect x="58" y="16" width="1" height="1" fill="#C2DAE6" />
<rect x="59" y="16" width="1" height="1" fill="#9BADB7" />
<rect x="60" y="16" width="1" height="1" fill="#9BADB7" />
<rect x="61" y="16" width="1" height="1" fill="#707D83" />
<rect x="62" y="16" width="1" height="1" fill="#5A336A" />
<rect x="63" y="16" width="1" height="1" fill="#5A336A" />
<rect x="21" y="17" width="1" height="1" fill="#5A336A" />
<rect x="22" y="17" width="1" height="1" fill="#9BADB7" />
<rect x="23" y="17" width="1" height="1" fill="#F22233" />
<rect x="24" y="17" width="1" height="1" fill="#9BADB7" />
<rect x="25" y="17" width="1" height="1" fill="#9BADB7" />
<rect x="26" y="17" width="1" height="1" fill="#F22233" />
<rect x="27" y="17" width="1" height="1" fill="#9BADB7" />
<rect x="28" y="17" width="1" height="1" fill="#C2DAE6" />
<rect x="29" y="17" width="1" height="1" fill="#C2DAE6" />
<rect x="30" y="17" width="1" height="1" fill="#9050A8" />
<rect x="55" y="17" width="1" height="1" fill="#9050A8" />
<rect x="56" y="17" width="1" height="1" fill="#C2DAE6" />
<rect x="57" y="17" width="1" height="1" fill="#C2DAE6" />
<rect x="58" y="17" width="1" height="1" fill="#9BADB7" />
<rect x="59" y="17" width="1" height="1" fill="#9BADB7" />
<rect x="60" y="17" width="1" height="1" fill="#9BADB7" />
<rect x="61" y="17" width="1" height="1" fill="#707D83" />
<rect x="62" y="17" width="1" height="1" fill="#707D83" />
<rect x="63" y="17" width="1" height="1" fill="#707D83" />
<rect x="64" y="17" width="1" height="1" fill="#5A336A" />
<rect x="10" y="18" width="1" height="1" fill="#FFFFFF" />
<rect x="11" y="18" width="1" height="1" fill="#FFFFFF" />
<rect x="12" y="18" width="1" height="1" fill="#FFFFFF" />
<rect x="13" y="18" width="1" height="1" fill="#FFFFFF" />
<rect x="14" y="18" width="1" height="1" fill="#FFFFFF" />
<rect x="15" y="18" width="1" height="1" fill="#FFFFFF" />
<rect x="16" y="18" width="1" height="1" fill="#FFFFFF" />
<rect x="17" y="18" width="1" height="1" fill="#FFFFFF" />
<rect x="18" y="18" width="1" height="1" fill="#FFFFFF" />
<rect x="19" y="18" width="1" height="1" fill="#FFFFFF" />
<rect x="20" y="18" width="1" height="1" fill="#FFFFFF" />
<rect x="21" y="18" width="1" height="1" fill="#5A336A" />
<rect x="22" y="18" width="1" height="1" fill="#9BADB7" />
<rect x="23" y="18" width="1" height="1" fill="#9BADB7" />
<rect x="24" y="18" width="1" height="1" fill="#F22233" />
<rect x="25" y="18" width="1" height="1" fill="#9BADB7" />
<rect x="26" y="18" width="1" height="1" fill="#F22233" />
<rect x="27" y="18" width="1" height="1" fill="#9BADB7" />
<rect x="28" y="18" width="1" height="1" fill="#9BADB7" />
<rect x="29" y="18" width="1" height="1" fill="#C2DAE6" />
<rect x="30" y="18" width="1" height="1" fill="#9050A8" />
<rect x="52" y="18" width="1" height="1" fill="#FFFFFF" />
<rect x="53" y="18" width="1" height="1" fill="#FFFFFF" />
<rect x="54" y="18" width="1" height="1" fill="#FFFFFF" />
<rect x="55" y="18" width="1" height="1" fill="#9050A8" />
<rect x="56" y="18" width="1" height="1" fill="#C2DAE6" />
<rect x="57" y="18" width="1" height="1" fill="#9BADB7" />
<rect x="58" y="18" width="1" height="1" fill="#0F8DBF" />
<rect x="59" y="18" width="1" height="1" fill="#0F8DBF" />
<rect x="60" y="18" width="1" height="1" fill="#0F8DBF" />
<rect x="61" y="18" width="1" height="1" fill="#0B5C7C" />
<rect x="62" y="18" width="1" height="1" fill="#0B5C7C" />
<rect x="63" y="18" width="1" height="1" fill="#707D83" />
<rect x="64" y="18" width="1" height="1" fill="#5A336A" />
<rect x="20" y="19" width="1" height="1" fill="#5A336A" />
<rect x="21" y="19" width="1" height="1" fill="#707D83" />
<rect x="22" y="19" width="1" height="1" fill="#9BADB7" />
<rect x="23" y="19" width="1" height="1" fill="#0F8DBF" />
<rect x="24" y="19" width="1" height="1" fill="#0F8DBF" />
<rect x="25" y="19" width="1" height="1" fill="#0F8DBF" />
<rect x="26" y="19" width="1" height="1" fill="#0F8DBF" />
<rect x="27" y="19" width="1" height="1" fill="#0F8DBF" />
<rect x="28" y="19" width="1" height="1" fill="#9BADB7" />
<rect x="29" y="19" width="1" height="1" fill="#15AEEC" />
<rect x="30" y="19" width="1" height="1" fill="#C2DAE6" />
<rect x="31" y="19" width="1" height="1" fill="#9050A8" />
<rect x="54" y="19" width="1" height="1" fill="#9050A8" />
<rect x="55" y="19" width="1" height="1" fill="#C2DAE6" />
<rect x="56" y="19" width="1" height="1" fill="#9BADB7" />
<rect x="57" y="19" width="1" height="1" fill="#9BADB7" />
<rect x="58" y="19" width="1" height="1" fill="#9BADB7" />
<rect x="59" y="19" width="1" height="1" fill="#9BADB7" />
<rect x="60" y="19" width="1" height="1" fill="#9BADB7" />
<rect x="61" y="19" width="1" height="1" fill="#9BADB7" />
<rect x="62" y="19" width="1" height="1" fill="#9BADB7" />
<rect x="63" y="19" width="1" height="1" fill="#707D83" />
<rect x="64" y="19" width="1" height="1" fill="#707D83" />
<rect x="65" y="19" width="1" height="1" fill="#5A336A" />
<rect x="20" y="20" width="1" height="1" fill="#5A336A" />
<rect x="21" y="20" width="1" height="1" fill="#707D83" />
<rect x="22" y="20" width="1" height="1" fill="#9BADB7" />
<rect x="23" y="20" width="1" height="1" fill="#9BADB7" />
<rect x="24" y="20" width="1" height="1" fill="#9BADB7" />
<rect x="25" y="20" width="1" height="1" fill="#9BADB7" />
<rect x="26" y="20" width="1" height="1" fill="#9BADB7" />
<rect x="27" y="20" width="1" height="1" fill="#9BADB7" />
<rect x="28" y="20" width="1" height="1" fill="#9BADB7" />
<rect x="29" y="20" width="1" height="1" fill="#9BADB7" />
<rect x="30" y="20" width="1" height="1" fill="#15AEEC" />
<rect x="31" y="20" width="1" height="1" fill="#9050A8" />
<rect x="47" y="20" width="1" height="1" fill="#FFFFFF" />
<rect x="48" y="20" width="1" height="1" fill="#FFFFFF" />
<rect x="49" y="20" width="1" height="1" fill="#FFFFFF" />
<rect x="50" y="20" width="1" height="1" fill="#FFFFFF" />
<rect x="51" y="20" width="1" height="1" fill="#FFFFFF" />
<rect x="52" y="20" width="1" height="1" fill="#FFFFFF" />
<rect x="53" y="20" width="1" height="1" fill="#FFFFFF" />
<rect x="54" y="20" width="1" height="1" fill="#9050A8" />
<rect x="55" y="20" width="1" height="1" fill="#C2DAE6" />
<rect x="56" y="20" width="1" height="1" fill="#15AEEC" />
<rect x="57" y="20" width="1" height="1" fill="#9BADB7" />
<rect x="58" y="20" width="1" height="1" fill="#9BADB7" />
<rect x="59" y="20" width="1" height="1" fill="#0F8DBF" />
<rect x="60" y="20" width="1" height="1" fill="#0F8DBF" />
<rect x="61" y="20" width="1" height="1" fill="#0F8DBF" />
<rect x="62" y="20" width="1" height="1" fill="#9BADB7" />
<rect x="63" y="20" width="1" height="1" fill="#9BADB7" />
<rect x="64" y="20" width="1" height="1" fill="#707D83" />
<rect x="65" y="20" width="1" height="1" fill="#5A336A" />
<rect x="9" y="21" width="1" height="1" fill="#FFFFFF" />
<rect x="10" y="21" width="1" height="1" fill="#FFFFFF" />
<rect x="11" y="21" width="1" height="1" fill="#FFFFFF" />
<rect x="12" y="21" width="1" height="1" fill="#FFFFFF" />
<rect x="13" y="21" width="1" height="1" fill="#FFFFFF" />
<rect x="14" y="21" width="1" height="1" fill="#FFFFFF" />
<rect x="15" y="21" width="1" height="1" fill="#FFFFFF" />
<rect x="16" y="21" width="1" height="1" fill="#FFFFFF" />
<rect x="17" y="21" width="1" height="1" fill="#FFFFFF" />
<rect x="18" y="21" width="1" height="1" fill="#FFFFFF" />
<rect x="19" y="21" width="1" height="1" fill="#FFFFFF" />
<rect x="20" y="21" width="1" height="1" fill="#5A336A" />
<rect x="21" y="21" width="1" height="1" fill="#707D83" />
<rect x="22" y="21" width="1" height="1" fill="#9BADB7" />
<rect x="23" y="21" width="1" height="1" fill="#9BADB7" />
<rect x="24" y="21" width="1" height="1" fill="#0F8DBF" />
<rect x="25" y="21" width="1" height="1" fill="#0F8DBF" />
<rect x="26" y="21" width="1" height="1" fill="#0F8DBF" />
<rect x="27" y="21" width="1" height="1" fill="#9BADB7" />
<rect x="28" y="21" width="1" height="1" fill="#9BADB7" />
<rect x="29" y="21" width="1" height="1" fill="#15AEEC" />
<rect x="30" y="21" width="1" height="1" fill="#C2DAE6" />
<rect x="31" y="21" width="1" height="1" fill="#9050A8" />
<rect x="54" y="21" width="1" height="1" fill="#9050A8" />
<rect x="55" y="21" width="1" height="1" fill="#15AEEC" />
<rect x="56" y="21" width="1" height="1" fill="#9BADB7" />
<rect x="57" y="21" width="1" height="1" fill="#9BADB7" />
<rect x="58" y="21" width="1" height="1" fill="#9BADB7" />
<rect x="59" y="21" width="1" height="1" fill="#9BADB7" />
<rect x="60" y="21" width="1" height="1" fill="#9BADB7" />
<rect x="61" y="21" width="1" height="1" fill="#9BADB7" />
<rect x="62" y="21" width="1" height="1" fill="#9BADB7" />
<rect x="63" y="21" width="1" height="1" fill="#9BADB7" />
<rect x="64" y="21" width="1" height="1" fill="#707D83" />
<rect x="65" y="21" width="1" height="1" fill="#5A336A" />
<rect x="20" y="22" width="1" height="1" fill="#5A336A" />
<rect x="21" y="22" width="1" height="1" fill="#707D83" />
<rect x="22" y="22" width="1" height="1" fill="#707D83" />
<rect x="23" y="22" width="1" height="1" fill="#9BADB7" />
<rect x="24" y="22" width="1" height="1" fill="#9BADB7" />
<rect x="25" y="22" width="1" height="1" fill="#9BADB7" />
<rect x="26" y="22" width="1" height="1" fill="#9BADB7" />
<rect x="27" y="22" width="1" height="1" fill="#9BADB7" />
<rect x="28" y="22" width="1" height="1" fill="#9BADB7" />
<rect x="29" y="22" width="1" height="1" fill="#9BADB7" />
<rect x="30" y="22" width="1" height="1" fill="#C2DAE6" />
<rect x="31" y="22" width="1" height="1" fill="#9050A8" />
<rect x="54" y="22" width="1" height="1" fill="#9050A8" />
<rect x="55" y="22" width="1" height="1" fill="#C2DAE6" />
<rect x="56" y="22" width="1" height="1" fill="#15AEEC" />
<rect x="57" y="22" width="1" height="1" fill="#9BADB7" />
<rect x="58" y="22" width="1" height="1" fill="#0F8DBF" />
<rect x="59" y="22" width="1" height="1" fill="#0F8DBF" />
<rect x="60" y="22" width="1" height="1" fill="#0F8DBF" />
<rect x="61" y="22" width="1" height="1" fill="#0F8DBF" />
<rect x="62" y="22" width="1" height="1" fill="#0F8DBF" />
<rect x="63" y="22" width="1" height="1" fill="#9BADB7" />
<rect x="64" y="22" width="1" height="1" fill="#707D83" />
<rect x="65" y="22" width="1" height="1" fill="#5A336A" />
<rect x="21" y="23" width="1" height="1" fill="#5A336A" />
<rect x="22" y="23" width="1" height="1" fill="#707D83" />
<rect x="23" y="23" width="1" height="1" fill="#0B5C7C" />
<rect x="24" y="23" width="1" height="1" fill="#0B5C7C" />
<rect x="25" y="23" width="1" height="1" fill="#0F8DBF" />
<rect x="26" y="23" width="1" height="1" fill="#0F8DBF" />
<rect x="27" y="23" width="1" height="1" fill="#0F8DBF" />
<rect x="28" y="23" width="1" height="1" fill="#9BADB7" />
<rect x="29" y="23" width="1" height="1" fill="#C2DAE6" />
<rect x="30" y="23" width="1" height="1" fill="#9050A8" />
<rect x="55" y="23" width="1" height="1" fill="#9050A8" />
<rect x="56" y="23" width="1" height="1" fill="#C2DAE6" />
<rect x="57" y="23" width="1" height="1" fill="#9BADB7" />
<rect x="58" y="23" width="1" height="1" fill="#9BADB7" />
<rect x="59" y="23" width="1" height="1" fill="#F22233" />
<rect x="60" y="23" width="1" height="1" fill="#9BADB7" />
<rect x="61" y="23" width="1" height="1" fill="#F22233" />
<rect x="62" y="23" width="1" height="1" fill="#9BADB7" />
<rect x="63" y="23" width="1" height="1" fill="#9BADB7" />
<rect x="64" y="23" width="1" height="1" fill="#5A336A" />
<rect x="9" y="24" width="1" height="1" fill="#FFFFFF" />
<rect x="10" y="24" width="1" height="1" fill="#FFFFFF" />
<rect x="11" y="24" width="1" height="1" fill="#FFFFFF" />
<rect x="12" y="24" width="1" height="1" fill="#FFFFFF" />
<rect x="13" y="24" width="1" height="1" fill="#FFFFFF" />
<rect x="14" y="24" width="1" height="1" fill="#FFFFFF" />
<rect x="15" y="24" width="1" height="1" fill="#FFFFFF" />
<rect x="16" y="24" width="1" height="1" fill="#FFFFFF" />
<rect x="17" y="24" width="1" height="1" fill="#FFFFFF" />
<rect x="18" y="24" width="1" height="1" fill="#FFFFFF" />
<rect x="19" y="24" width="1" height="1" fill="#FFFFFF" />
<rect x="20" y="24" width="1" height="1" fill="#FFFFFF" />
<rect x="21" y="24" width="1" height="1" fill="#5A336A" />
<rect x="22" y="24" width="1" height="1" fill="#707D83" />
<rect x="23" y="24" width="1" height="1" fill="#707D83" />
<rect x="24" y="24" width="1" height="1" fill="#707D83" />
<rect x="25" y="24" width="1" height="1" fill="#9BADB7" />
<rect x="26" y="24" width="1" height="1" fill="#9BADB7" />
<rect x="27" y="24" width="1" height="1" fill="#9BADB7" />
<rect x="28" y="24" width="1" height="1" fill="#C2DAE6" />
<rect x="29" y="24" width="1" height="1" fill="#C2DAE6" />
<rect x="30" y="24" width="1" height="1" fill="#9050A8" />
<rect x="48" y="24" width="1" height="1" fill="#FFFFFF" />
<rect x="49" y="24" width="1" height="1" fill="#FFFFFF" />
<rect x="50" y="24" width="1" height="1" fill="#FFFFFF" />
<rect x="51" y="24" width="1" height="1" fill="#FFFFFF" />
<rect x="52" y="24" width="1" height="1" fill="#FFFFFF" />
<rect x="53" y="24" width="1" height="1" fill="#FFFFFF" />
<rect x="54" y="24" width="1" height="1" fill="#FFFFFF" />
<rect x="55" y="24" width="1" height="1" fill="#9050A8" />
<rect x="56" y="24" width="1" height="1" fill="#C2DAE6" />
<rect x="57" y="24" width="1" height="1" fill="#C2DAE6" />
<rect x="58" y="24" width="1" height="1" fill="#9BADB7" />
<rect x="59" y="24" width="1" height="1" fill="#F22233" />
<rect x="60" y="24" width="1" height="1" fill="#9BADB7" />
<rect x="61" y="24" width="1" height="1" fill="#9BADB7" />
<rect x="62" y="24" width="1" height="1" fill="#F22233" />
<rect x="63" y="24" width="1" height="1" fill="#9BADB7" />
<rect x="64" y="24" width="1" height="1" fill="#5A336A" />
<rect x="22" y="25" width="1" height="1" fill="#5A336A" />
<rect x="23" y="25" width="1" height="1" fill="#5A336A" />
<rect x="24" y="25" width="1" height="1" fill="#707D83" />
<rect x="25" y="25" width="1" height="1" fill="#9BADB7" />
<rect x="26" y="25" width="1" height="1" fill="#9BADB7" />
<rect x="27" y="25" width="1" height="1" fill="#C2DAE6" />
<rect x="28" y="25" width="1" height="1" fill="#9050A8" />
<rect x="29" y="25" width="1" height="1" fill="#9050A8" />
<rect x="56" y="25" width="1" height="1" fill="#9050A8" />
<rect x="57" y="25" width="1" height="1" fill="#9050A8" />
<rect x="58" y="25" width="1" height="1" fill="#F22233" />
<rect x="59" y="25" width="1" height="1" fill="#9BADB7" />
<rect x="60" y="25" width="1" height="1" fill="#9BADB7" />
<rect x="61" y="25" width="1" height="1" fill="#F22233" />
<rect x="62" y="25" width="1" height="1" fill="#5A336A" />
<rect x="63" y="25" width="1" height="1" fill="#5A336A" />
<rect x="24" y="26" width="1" height="1" fill="#5A336A" />
<rect x="25" y="26" width="1" height="1" fill="#76428A" />
<rect x="26" y="26" width="1" height="1" fill="#76428A" />
<rect x="27" y="26" width="1" height="1" fill="#76428A" />
<rect x="58" y="26" width="1" height="1" fill="#9050A8" />
<rect x="59" y="26" width="1" height="1" fill="#9050A8" />
<rect x="60" y="26" width="1" height="1" fill="#9050A8" />
<rect x="61" y="26" width="1" height="1" fill="#5A336A" />
</svg>