<?xml version="1.0" encoding="UTF-8" ?>
<svg version="1.1" width="68" height="34" xmlns="http://www.w3.org/2000/svg" shape-rendering="crispEdges">
<rect x="28" y="13" width="1" height="1" fill="#FFFFFF" />
<rect x="29" y="14" width="1" height="1" fill="#FFFFFF" />
<rect x="50" y="14" width="1" height="1" fill="#FFFFFF" />
<rect x="51" y="14" width="1" height="1" fill="#FFFFFF" />
<rect x="52" y="14" width="1" height="1" fill="#FFFFFF" />
<rect x="53" y="14" width="1" height="1" fill="#FFFFFF" />
<rect x="62" y="14" width="1" height="1" fill="#FFFFFF" />
<rect x="21" y="15" width="1" height="1" fill="#F7C773" />
<rect x="30" y="15" width="1" height="1" fill="#FFFFFF" />
<rect x="55" y="15" width="1" height="1" fill="#F7C773" />
<rect x="63" y="15" width="1" height="1" fill="#FFFFFF" />
<rect x="19" y="16" width="1" height="1" fill="#F7C773" />
<rect x="20" y="16" width="1" height="1" fill="#F7C773" />
<rect x="21" y="16" width="1" height="1" fill="#F7C773" />
<rect x="22" y="16" width="1" height="1" fill="#9195D3" />
<rect x="23" y="16" width="1" height="1" fill="#9195D3" />
<rect x="24" y="16" width="1" height="1" fill="#9195D3" />
<rect x="25" y="16" width="1" height="1" fill="#9195D3" />
<rect x="26" y="16" width="1" height="1" fill="#9195D3" />
<rect x="27" y="16" width="1" height="1" fill="#9195D3" />
<rect x="28" y="16" width="1" height="1" fill="#9195D3" />
<rect x="29" y="16" width="1" height="1" fill="#9195D3" />
<rect x="31" y="16" width="1" height="1" fill="#FFFFFF" />
<rect x="55" y="16" width="1" height="1" fill="#F7C773" />
<rect x="56" y="16" width="1" height="1" fill="#777BB3" />
<rect x="57" y="16" width="1" height="1" fill="#777BB3" />
<rect x="58" y="16" width="1" height="1" fill="#777BB3" />
<rect x="59" y="16" width="1" height="1" fill="#777BB3" />
<rect x="60" y="16" width="1" height="1" fill="#777BB3" />
<rect x="61" y="16" width="1" height="1" fill="#777BB3" />
<rect x="62" y="16" width="1" height="1" fill="#777BB3" />
<rect x="64" y="16" width="1" height="1" fill="#FFFFFF" />
<rect x="19" y="17" width="1" height="1" fill="#0D0D0D" opacity="0.670588" />
<rect x="20" y="17" width="1" height="1" fill="#0D0D0D" opacity="0.670588" />
<rect x="21" y="17" width="1" height="1" fill="#F7C773" />
<rect x="22" y="17" width="1" height="1" fill="#777BB3" />
<rect x="23" y="17" width="1" height="1" fill="#777BB3" />
<rect x="24" y="17" width="1" height="1" fill="#777BB3" />
<rect x="25" y="17" width="1" height="1" fill="#777BB3" />
<rect x="26" y="17" width="1" height="1" fill="#777BB3" />
<rect x="27" y="17" width="1" height="1" fill="#777BB3" />
<rect x="28" y="17" width="1" height="1" fill="#777BB3" />
<rect x="29" y="17" width="1" height="1" fill="#0D0D0D" opacity="0.670588" />
<rect x="30" y="17" width="1" height="1" fill="#FFFFFF" />
<rect x="48" y="17" width="1" height="1" fill="#FFFFFF" />
<rect x="49" y="17" width="1" height="1" fill="#FFFFFF" />
<rect x="50" y="17" width="1" height="1" fill="#FFFFFF" />
<rect x="51" y="17" width="1" height="1" fill="#FFFFFF" />
<rect x="53" y="17" width="1" height="1" fill="#F7C773" />
<rect x="54" y="17" width="1" height="1" fill="#F7C773" />
<rect x="55" y="17" width="1" height="1" fill="#F7C773" />
<rect x="56" y="17" width="1" height="1" fill="#9195D3" />
<rect x="57" y="17" width="1" height="1" fill="#9195D3" />
<rect x="58" y="17" width="1" height="1" fill="#9195D3" />
<rect x="59" y="17" width="1" height="1" fill="#9195D3" />
<rect x="60" y="17" width="1" height="1" fill="#9195D3" />
<rect x="61" y="17" width="1" height="1" fill="#9195D3" />
<rect x="62" y="17" width="1" height="1" fill="#9195D3" />
<rect x="63" y="17" width="1" height="1" fill="#9195D3" />
<rect x="65" y="17" width="1" height="1" fill="#FFFFFF" />
<rect x="20" y="18" width="1" height="1" fill="#0D0D0D" opacity="0.670588" />
<rect x="21" y="18" width="1" height="1" fill="#F7C773" />
<rect x="22" y="18" width="1" height="1" fill="#0D0D0D" opacity="0.670588" />
<rect x="23" y="18" width="1" height="1" fill="#0D0D0D" opacity="0.670588" />
<rect x="24" y="18" width="1" height="1" fill="#0D0D0D" opacity="0.670588" />
<rect x="25" y="18" width="1" height="1" fill="#0D0D0D" opacity="0.670588" />
<rect x="26" y="18" width="1" height="1" fill="#0D0D0D" opacity="0.670588" />
<rect x="27" y="18" width="1" height="1" fill="#0D0D0D" opacity="0.670588" />
<rect x="28" y="18" width="1" height="1" fill="#0D0D0D" opacity="0.670588" />
<rect x="29" y="18" width="1" height="1" fill="#FFFFFF" />
<rect x="53" y="18" width="1" height="1" fill="#0D0D0D" opacity="0.670588" />
<rect x="54" y="18" width="1" height="1" fill="#0D0D0D" opacity="0.670588" />
<rect x="55" y="18" width="1" height="1" fill="#F7C773" />
<rect x="56" y="18" width="1" height="1" fill="#0D0D0D" opacity="0.670588" />
<rect x="57" y="18" width="1" height="1" fill="#0D0D0D" opacity="0.670588" />
<rect x="58" y="18" width="1" height="1" fill="#0D0D0D" opacity="0.670588" />
<rect x="59" y="18" width="1" height="1" fill="#0D0D0D" opacity="0.670588" />
<rect x="60" y="18" width="1" height="1" fill="#0D0D0D" opacity="0.670588" />
<rect x="61" y="18" width="1" height="1" fill="#0D0D0D" opacity="0.670588" />
<rect x="62" y="18" width="1" height="1" fill="#0D0D0D" opacity="0.670588" />
<rect x="63" y="18" width="1" height="1" fill="#0D0D0D" opacity="0.670588" />
<rect x="64" y="18" width="1" height="1" fill="#FFFFFF" />
<rect x="20" y="19" width="1" height="1" fill="#0D0D0D" opacity="0.670588" />
<rect x="21" y="19" width="1" height="1" fill="#0D0D0D" opacity="0.670588" />
<rect x="22" y="19" width="1" height="1" fill="#0D0D0D" opacity="0.670588" />
<rect x="28" y="19" width="1" height="1" fill="#FFFFFF" />
<rect x="54" y="19" width="1" height="1" fill="#0D0D0D" opacity="0.670588" />
<rect x="55" y="19" width="1" height="1" fill="#0D0D0D" opacity="0.670588" />
<rect x="56" y="19" width="1" height="1" fill="#0D0D0D" opacity="0.670588" />
<rect x="63" y="19" width="1" height="1" fill="#FFFFFF" />
<rect x="51" y="20" width="1" height="1" fill="#FFFFFF" />
<rect x="52" y="20" width="1" height="1" fill="#FFFFFF" />
<rect x="62" y="20" width="1" height="1" fill="#FFFFFF" />
</svg>