<?xml version="1.0" encoding="UTF-8" ?>
<svg version="1.1" width="32" height="32" xmlns="http://www.w3.org/2000/svg" shape-rendering="crispEdges">
<rect x="13" y="7" width="1" height="1" fill="#6674C1" />
<rect x="14" y="7" width="1" height="1" fill="#4A548C" />
<rect x="15" y="7" width="1" height="1" fill="#4A548C" />
<rect x="16" y="7" width="1" height="1" fill="#4A548C" />
<rect x="17" y="7" width="1" height="1" fill="#4A548C" />
<rect x="18" y="7" width="1" height="1" fill="#4A548C" />
<rect x="19" y="7" width="1" height="1" fill="#4A548C" />
<rect x="12" y="8" width="1" height="1" fill="#6674C1" />
<rect x="13" y="8" width="1" height="1" fill="#6674C1" />
<rect x="14" y="8" width="1" height="1" fill="#6674C1" />
<rect x="15" y="8" width="1" height="1" fill="#6674C1" />
<rect x="16" y="8" width="1" height="1" fill="#6674C1" />
<rect x="17" y="8" width="1" height="1" fill="#6674C1" />
<rect x="18" y="8" width="1" height="1" fill="#4A548C" />
<rect x="19" y="8" width="1" height="1" fill="#4A548C" />
<rect x="20" y="8" width="1" height="1" fill="#4A548C" />
<rect x="21" y="8" width="1" height="1" fill="#0D0D0D" opacity="0.670588" />
<rect x="11" y="9" width="1" height="1" fill="#6674C1" />
<rect x="12" y="9" width="1" height="1" fill="#4A548C" />
<rect x="13" y="9" width="1" height="1" fill="#3E4776" />
<rect x="14" y="9" width="1" height="1" fill="#C1866B" />
<rect x="15" y="9" width="1" height="1" fill="#0D0D0D" />
<rect x="16" y="9" width="1" height="1" fill="#0D0D0D" />
<rect x="17" y="9" width="1" height="1" fill="#6674C1" />
<rect x="18" y="9" width="1" height="1" fill="#6674C1" />
<rect x="19" y="9" width="1" height="1" fill="#4A548C" />
<rect x="20" y="9" width="1" height="1" fill="#4A548C" />
<rect x="21" y="9" width="1" height="1" fill="#3E4776" />
<rect x="22" y="9" width="1" height="1" fill="#0D0D0D" opacity="0.670588" />
<rect x="23" y="9" width="1" height="1" fill="#0D0D0D" opacity="0.670588" />
<rect x="11" y="10" width="1" height="1" fill="#6674C1" />
<rect x="12" y="10" width="1" height="1" fill="#4A548C" />
<rect x="13" y="10" width="1" height="1" fill="#3E4776" />
<rect x="14" y="10" width="1" height="1" fill="#E9A282" />
<rect x="15" y="10" width="1" height="1" fill="#E9A282" />
<rect x="16" y="10" width="1" height="1" fill="#E9A282" />
<rect x="17" y="10" width="1" height="1" fill="#C1866B" />
<rect x="18" y="10" width="1" height="1" fill="#6674C1" />
<rect x="19" y="10" width="1" height="1" fill="#6674C1" />
<rect x="20" y="10" width="1" height="1" fill="#4A548C" />
<rect x="21" y="10" width="1" height="1" fill="#3E4776" />
<rect x="22" y="10" width="1" height="1" fill="#3E4776" />
<rect x="23" y="10" width="1" height="1" fill="#0D0D0D" opacity="0.670588" />
<rect x="11" y="11" width="1" height="1" fill="#6674C1" />
<rect x="12" y="11" width="1" height="1" fill="#4A548C" />
<rect x="13" y="11" width="1" height="1" fill="#3E4776" />
<rect x="14" y="11" width="1" height="1" fill="#E9A282" />
<rect x="15" y="11" width="1" height="1" fill="#E9A282" />
<rect x="16" y="11" width="1" height="1" fill="#E9A282" />
<rect x="17" y="11" width="1" height="1" fill="#E9A282" />
<rect x="18" y="11" width="1" height="1" fill="#C1866B" />
<rect x="19" y="11" width="1" height="1" fill="#6674C1" />
<rect x="20" y="11" width="1" height="1" fill="#4A548C" />
<rect x="21" y="11" width="1" height="1" fill="#3E4776" />
<rect x="22" y="11" width="1" height="1" fill="#3E4776" />
<rect x="23" y="11" width="1" height="1" fill="#0D0D0D" opacity="0.670588" />
<rect x="11" y="12" width="1" height="1" fill="#6674C1" />
<rect x="12" y="12" width="1" height="1" fill="#4A548C" />
<rect x="13" y="12" width="1" height="1" fill="#3E4776" />
<rect x="14" y="12" width="1" height="1" fill="#000000" />
<rect x="15" y="12" width="1" height="1" fill="#E9A282" />
<rect x="16" y="12" width="1" height="1" fill="#000000" />
<rect x="17" y="12" width="1" height="1" fill="#000000" />
<rect x="18" y="12" width="1" height="1" fill="#C1866B" />
<rect x="19" y="12" width="1" height="1" fill="#6674C1" />
<rect x="20" y="12" width="1" height="1" fill="#4A548C" />
<rect x="21" y="12" width="1" height="1" fill="#3E4776" />
<rect x="22" y="12" width="1" height="1" fill="#3E4776" />
<rect x="23" y="12" width="1" height="1" fill="#0D0D0D" opacity="0.670588" />
<rect x="11" y="13" width="1" height="1" fill="#6674C1" />
<rect x="12" y="13" width="1" height="1" fill="#4A548C" />
<rect x="13" y="13" width="1" height="1" fill="#3E4776" />
<rect x="14" y="13" width="1" height="1" fill="#E9A282" />
<rect x="15" y="13" width="1" height="1" fill="#E9A282" />
<rect x="16" y="13" width="1" height="1" fill="#E9A282" />
<rect x="17" y="13" width="1" height="1" fill="#E9A282" />
<rect x="18" y="13" width="1" height="1" fill="#C1866B" />
<rect x="19" y="13" width="1" height="1" fill="#6674C1" />
<rect x="20" y="13" width="1" height="1" fill="#4A548C" />
<rect x="21" y="13" width="1" height="1" fill="#3E4776" />
<rect x="22" y="13" width="1" height="1" fill="#0D0D0D" opacity="0.670588" />
<rect x="12" y="14" width="1" height="1" fill="#6674C1" />
<rect x="13" y="14" width="1" height="1" fill="#3E4776" />
<rect x="14" y="14" width="1" height="1" fill="#E9A282" />
<rect x="15" y="14" width="1" height="1" fill="#E9A282" />
<rect x="16" y="14" width="1" height="1" fill="#E9A282" />
<rect x="17" y="14" width="1" height="1" fill="#E9A282" />
<rect x="18" y="14" width="1" height="1" fill="#C1866B" />
<rect x="19" y="14" width="1" height="1" fill="#6674C1" />
<rect x="20" y="14" width="1" height="1" fill="#4A548C" />
<rect x="21" y="14" width="1" height="1" fill="#3E4776" />
<rect x="22" y="14" width="1" height="1" fill="#0D0D0D" opacity="0.670588" />
<rect x="13" y="15" width="1" height="1" fill="#6674C1" />
<rect x="14" y="15" width="1" height="1" fill="#6674C1" />
<rect x="15" y="15" width="1" height="1" fill="#6674C1" />
<rect x="16" y="15" width="1" height="1" fill="#6674C1" />
<rect x="17" y="15" width="1" height="1" fill="#6674C1" />
<rect x="18" y="15" width="1" height="1" fill="#6674C1" />
<rect x="19" y="15" width="1" height="1" fill="#6674C1" />
<rect x="20" y="15" width="1" height="1" fill="#4A548C" />
<rect x="21" y="15" width="1" height="1" fill="#0D0D0D" opacity="0.670588" />
<rect x="22" y="15" width="1" height="1" fill="#0D0D0D" opacity="0.670588" />
<rect x="11" y="16" width="1" height="1" fill="#9B5D61" />
<rect x="12" y="16" width="1" height="1" fill="#9B5D61" />
<rect x="13" y="16" width="1" height="1" fill="#9B5D61" />
<rect x="14" y="16" width="1" height="1" fill="#814A4D" />
<rect x="15" y="16" width="1" height="1" fill="#3E4776" />
<rect x="16" y="16" width="1" height="1" fill="#3E4776" />
<rect x="17" y="16" width="1" height="1" fill="#3E4776" />
<rect x="18" y="16" width="1" height="1" fill="#76474A" />
<rect x="19" y="16" width="1" height="1" fill="#66454C" />
<rect x="20" y="16" width="1" height="1" fill="#9B5D61" />
<rect x="21" y="16" width="1" height="1" fill="#9B5D61" />
<rect x="22" y="16" width="1" height="1" fill="#0D0D0D" opacity="0.670588" />
<rect x="11" y="17" width="1" height="1" fill="#835053" />
<rect x="12" y="17" width="1" height="1" fill="#814A4D" />
<rect x="13" y="17" width="1" height="1" fill="#835053" />
<rect x="14" y="17" width="1" height="1" fill="#83474A" />
<rect x="15" y="17" width="1" height="1" fill="#814A4D" />
<rect x="16" y="17" width="1" height="1" fill="#835053" />
<rect x="17" y="17" width="1" height="1" fill="#83474A" />
<rect x="18" y="17" width="1" height="1" fill="#66454C" />
<rect x="19" y="17" width="1" height="1" fill="#835053" />
<rect x="20" y="17" width="1" height="1" fill="#835053" />
<rect x="21" y="17" width="1" height="1" fill="#835053" />
<rect x="22" y="17" width="1" height="1" fill="#0D0D0D" opacity="0.670588" />
<rect x="11" y="18" width="1" height="1" fill="#814A4D" />
<rect x="12" y="18" width="1" height="1" fill="#835053" />
<rect x="13" y="18" width="1" height="1" fill="#222537" />
<rect x="14" y="18" width="1" height="1" fill="#7385E0" />
<rect x="15" y="18" width="1" height="1" fill="#7385E0" />
<rect x="16" y="18" width="1" height="1" fill="#7385E0" />
<rect x="17" y="18" width="1" height="1" fill="#7385E0" />
<rect x="18" y="18" width="1" height="1" fill="#835053" />
<rect x="19" y="18" width="1" height="1" fill="#835053" />
<rect x="20" y="18" width="1" height="1" fill="#814A4D" />
<rect x="21" y="18" width="1" height="1" fill="#835053" />
<rect x="22" y="18" width="1" height="1" fill="#835053" />
<rect x="23" y="18" width="1" height="1" fill="#0D0D0D" opacity="0.670588" />
<rect x="11" y="19" width="1" height="1" fill="#835053" />
<rect x="12" y="19" width="1" height="1" fill="#835053" />
<rect x="13" y="19" width="1" height="1" fill="#222537" />
<rect x="14" y="19" width="1" height="1" fill="#7385E0" />
<rect x="15" y="19" width="1" height="1" fill="#835053" />
<rect x="16" y="19" width="1" height="1" fill="#66454C" />
<rect x="17" y="19" width="1" height="1" fill="#7385E0" />
<rect x="18" y="19" width="1" height="1" fill="#643A3D" />
<rect x="19" y="19" width="1" height="1" fill="#835053" />
<rect x="20" y="19" width="1" height="1" fill="#83474A" />
<rect x="21" y="19" width="1" height="1" fill="#835053" />
<rect x="22" y="19" width="1" height="1" fill="#83474A" />
<rect x="23" y="19" width="1" height="1" fill="#0D0D0D" opacity="0.670588" />
<rect x="10" y="20" width="1" height="1" fill="#835053" />
<rect x="11" y="20" width="1" height="1" fill="#835053" />
<rect x="12" y="20" width="1" height="1" fill="#835053" />
<rect x="13" y="20" width="1" height="1" fill="#222537" />
<rect x="14" y="20" width="1" height="1" fill="#7385E0" />
<rect x="15" y="20" width="1" height="1" fill="#66454C" />
<rect x="16" y="20" width="1" height="1" fill="#814A4D" />
<rect x="17" y="20" width="1" height="1" fill="#7385E0" />
<rect x="18" y="20" width="1" height="1" fill="#643A3D" />
<rect x="19" y="20" width="1" height="1" fill="#222537" />
<rect x="21" y="20" width="1" height="1" fill="#835053" />
<rect x="22" y="20" width="1" height="1" fill="#814A4D" />
<rect x="23" y="20" width="1" height="1" fill="#F7C773" />
<rect x="24" y="20" width="1" height="1" fill="#0D0D0D" opacity="0.670588" />
<rect x="8" y="21" width="1" height="1" fill="#F7C773" />
<rect x="9" y="21" width="1" height="1" fill="#000000" />
<rect x="10" y="21" width="1" height="1" fill="#814A4D" />
<rect x="11" y="21" width="1" height="1" fill="#643A3D" />
<rect x="12" y="21" width="1" height="1" fill="#0D0D0D" opacity="0.670588" />
<rect x="13" y="21" width="1" height="1" fill="#4A548C" />
<rect x="14" y="21" width="1" height="1" fill="#66454C" />
<rect x="15" y="21" width="1" height="1" fill="#7385E0" />
<rect x="16" y="21" width="1" height="1" fill="#7385E0" />
<rect x="17" y="21" width="1" height="1" fill="#7385E0" />
<rect x="18" y="21" width="1" height="1" fill="#643A3D" />
<rect x="19" y="21" width="1" height="1" fill="#222537" />
<rect x="20" y="21" width="1" height="1" fill="#F7C773" />
<rect x="21" y="21" width="1" height="1" fill="#000000" />
<rect x="22" y="21" width="1" height="1" fill="#000000" />
<rect x="23" y="21" width="1" height="1" fill="#0D0D0D" opacity="0.670588" />
<rect x="8" y="22" width="1" height="1" fill="#9195D3" />
<rect x="9" y="22" width="1" height="1" fill="#F7C773" />
<rect x="10" y="22" width="1" height="1" fill="#000000" />
<rect x="11" y="22" width="1" height="1" fill="#0D0D0D" opacity="0.670588" />
<rect x="12" y="22" width="1" height="1" fill="#0D0D0D" opacity="0.670588" />
<rect x="13" y="22" width="1" height="1" fill="#4A548C" />
<rect x="14" y="22" width="1" height="1" fill="#814A4D" />
<rect x="15" y="22" width="1" height="1" fill="#835053" />
<rect x="16" y="22" width="1" height="1" fill="#835053" />
<rect x="17" y="22" width="1" height="1" fill="#7385E0" />
<rect x="18" y="22" width="1" height="1" fill="#643A3D" />
<rect x="19" y="22" width="1" height="1" fill="#222537" />
<rect x="20" y="22" width="1" height="1" fill="#9195D3" />
<rect x="21" y="22" width="1" height="1" fill="#F7C773" />
<rect x="22" y="22" width="1" height="1" fill="#000000" />
<rect x="23" y="22" width="1" height="1" fill="#0D0D0D" opacity="0.670588" />
<rect x="7" y="23" width="1" height="1" fill="#9195D3" />
<rect x="8" y="23" width="1" height="1" fill="#9195D3" />
<rect x="9" y="23" width="1" height="1" fill="#777BB3" />
<rect x="10" y="23" width="1" height="1" fill="#F7C773" />
<rect x="11" y="23" width="1" height="1" fill="#0D0D0D" opacity="0.670588" />
<rect x="12" y="23" width="1" height="1" fill="#0D0D0D" opacity="0.670588" />
<rect x="13" y="23" width="1" height="1" fill="#4A548C" />
<rect x="14" y="23" width="1" height="1" fill="#83474A" />
<rect x="15" y="23" width="1" height="1" fill="#814A4D" />
<rect x="16" y="23" width="1" height="1" fill="#814A4D" />
<rect x="17" y="23" width="1" height="1" fill="#7385E0" />
<rect x="18" y="23" width="1" height="1" fill="#1F1617" />
<rect x="19" y="23" width="1" height="1" fill="#9195D3" />
<rect x="20" y="23" width="1" height="1" fill="#9195D3" />
<rect x="21" y="23" width="1" height="1" fill="#777BB3" />
<rect x="22" y="23" width="1" height="1" fill="#F7C773" />
<rect x="23" y="23" width="1" height="1" fill="#0D0D0D" opacity="0.670588" />
<rect x="7" y="24" width="1" height="1" fill="#9195D3" />
<rect x="8" y="24" width="1" height="1" fill="#777BB3" />
<rect x="9" y="24" width="1" height="1" fill="#0D0D0D" opacity="0.670588" />
<rect x="10" y="24" width="1" height="1" fill="#0D0D0D" opacity="0.670588" />
<rect x="11" y="24" width="1" height="1" fill="#0D0D0D" opacity="0.670588" />
<rect x="12" y="24" width="1" height="1" fill="#0D0D0D" opacity="0.670588" />
<rect x="13" y="24" width="1" height="1" fill="#4A548C" />
<rect x="14" y="24" width="1" height="1" fill="#835053" />
<rect x="15" y="24" width="1" height="1" fill="#814A4D" />
<rect x="16" y="24" width="1" height="1" fill="#835053" />
<rect x="17" y="24" width="1" height="1" fill="#814A4D" />
<rect x="18" y="24" width="1" height="1" fill="#9195D3" />
<rect x="19" y="24" width="1" height="1" fill="#9195D3" />
<rect x="20" y="24" width="1" height="1" fill="#777BB3" />
<rect x="21" y="24" width="1" height="1" fill="#0D0D0D" opacity="0.670588" />
<rect x="22" y="24" width="1" height="1" fill="#0D0D0D" opacity="0.670588" />
<rect x="23" y="24" width="1" height="1" fill="#0D0D0D" opacity="0.670588" />
</svg>