<?xml version="1.0" encoding="UTF-8" ?>
<svg version="1.1" width="64" height="32" xmlns="http://www.w3.org/2000/svg" shape-rendering="crispEdges">
<rect x="43" y="6" width="1" height="1" fill="#4A548C" />
<rect x="44" y="6" width="1" height="1" fill="#4A548C" />
<rect x="45" y="6" width="1" height="1" fill="#4A548C" />
<rect x="46" y="6" width="1" height="1" fill="#4A548C" />
<rect x="47" y="6" width="1" height="1" fill="#4A548C" />
<rect x="48" y="6" width="1" height="1" fill="#4A548C" />
<rect x="49" y="6" width="1" height="1" fill="#6674C1" />
<rect x="11" y="7" width="1" height="1" fill="#4A548C" />
<rect x="12" y="7" width="1" height="1" fill="#4A548C" />
<rect x="13" y="7" width="1" height="1" fill="#4A548C" />
<rect x="14" y="7" width="1" height="1" fill="#4A548C" />
<rect x="15" y="7" width="1" height="1" fill="#4A548C" />
<rect x="16" y="7" width="1" height="1" fill="#4A548C" />
<rect x="17" y="7" width="1" height="1" fill="#6674C1" />
<rect x="41" y="7" width="1" height="1" fill="#0D0D0D" opacity="0.670588" />
<rect x="42" y="7" width="1" height="1" fill="#4A548C" />
<rect x="43" y="7" width="1" height="1" fill="#4A548C" />
<rect x="44" y="7" width="1" height="1" fill="#4A548C" />
<rect x="45" y="7" width="1" height="1" fill="#6674C1" />
<rect x="46" y="7" width="1" height="1" fill="#6674C1" />
<rect x="47" y="7" width="1" height="1" fill="#6674C1" />
<rect x="48" y="7" width="1" height="1" fill="#6674C1" />
<rect x="49" y="7" width="1" height="1" fill="#6674C1" />
<rect x="50" y="7" width="1" height="1" fill="#6674C1" />
<rect x="9" y="8" width="1" height="1" fill="#0D0D0D" opacity="0.670588" />
<rect x="10" y="8" width="1" height="1" fill="#4A548C" />
<rect x="11" y="8" width="1" height="1" fill="#4A548C" />
<rect x="12" y="8" width="1" height="1" fill="#4A548C" />
<rect x="13" y="8" width="1" height="1" fill="#6674C1" />
<rect x="14" y="8" width="1" height="1" fill="#6674C1" />
<rect x="15" y="8" width="1" height="1" fill="#6674C1" />
<rect x="16" y="8" width="1" height="1" fill="#6674C1" />
<rect x="17" y="8" width="1" height="1" fill="#6674C1" />
<rect x="18" y="8" width="1" height="1" fill="#6674C1" />
<rect x="39" y="8" width="1" height="1" fill="#0D0D0D" opacity="0.670588" />
<rect x="40" y="8" width="1" height="1" fill="#0D0D0D" opacity="0.670588" />
<rect x="41" y="8" width="1" height="1" fill="#3E4776" />
<rect x="42" y="8" width="1" height="1" fill="#4A548C" />
<rect x="43" y="8" width="1" height="1" fill="#4A548C" />
<rect x="44" y="8" width="1" height="1" fill="#6674C1" />
<rect x="45" y="8" width="1" height="1" fill="#6674C1" />
<rect x="46" y="8" width="1" height="1" fill="#0D0D0D" />
<rect x="47" y="8" width="1" height="1" fill="#0D0D0D" />
<rect x="48" y="8" width="1" height="1" fill="#C1866B" />
<rect x="49" y="8" width="1" height="1" fill="#3E4776" />
<rect x="50" y="8" width="1" height="1" fill="#4A548C" />
<rect x="51" y="8" width="1" height="1" fill="#6674C1" />
<rect x="7" y="9" width="1" height="1" fill="#0D0D0D" opacity="0.670588" />
<rect x="8" y="9" width="1" height="1" fill="#0D0D0D" opacity="0.670588" />
<rect x="9" y="9" width="1" height="1" fill="#3E4776" />
<rect x="10" y="9" width="1" height="1" fill="#4A548C" />
<rect x="11" y="9" width="1" height="1" fill="#4A548C" />
<rect x="12" y="9" width="1" height="1" fill="#6674C1" />
<rect x="13" y="9" width="1" height="1" fill="#6674C1" />
<rect x="14" y="9" width="1" height="1" fill="#0D0D0D" />
<rect x="15" y="9" width="1" height="1" fill="#0D0D0D" />
<rect x="16" y="9" width="1" height="1" fill="#C1866B" />
<rect x="17" y="9" width="1" height="1" fill="#3E4776" />
<rect x="18" y="9" width="1" height="1" fill="#4A548C" />
<rect x="19" y="9" width="1" height="1" fill="#6674C1" />
<rect x="39" y="9" width="1" height="1" fill="#0D0D0D" opacity="0.670588" />
<rect x="40" y="9" width="1" height="1" fill="#3E4776" />
<rect x="41" y="9" width="1" height="1" fill="#3E4776" />
<rect x="42" y="9" width="1" height="1" fill="#4A548C" />
<rect x="43" y="9" width="1" height="1" fill="#6674C1" />
<rect x="44" y="9" width="1" height="1" fill="#6674C1" />
<rect x="45" y="9" width="1" height="1" fill="#C1866B" />
<rect x="46" y="9" width="1" height="1" fill="#E9A282" />
<rect x="47" y="9" width="1" height="1" fill="#E9A282" />
<rect x="48" y="9" width="1" height="1" fill="#E9A282" />
<rect x="49" y="9" width="1" height="1" fill="#3E4776" />
<rect x="50" y="9" width="1" height="1" fill="#4A548C" />
<rect x="51" y="9" width="1" height="1" fill="#6674C1" />
<rect x="7" y="10" width="1" height="1" fill="#0D0D0D" opacity="0.670588" />
<rect x="8" y="10" width="1" height="1" fill="#3E4776" />
<rect x="9" y="10" width="1" height="1" fill="#3E4776" />
<rect x="10" y="10" width="1" height="1" fill="#4A548C" />
<rect x="11" y="10" width="1" height="1" fill="#6674C1" />
<rect x="12" y="10" width="1" height="1" fill="#6674C1" />
<rect x="13" y="10" width="1" height="1" fill="#C1866B" />
<rect x="14" y="10" width="1" height="1" fill="#E9A282" />
<rect x="15" y="10" width="1" height="1" fill="#E9A282" />
<rect x="16" y="10" width="1" height="1" fill="#E9A282" />
<rect x="17" y="10" width="1" height="1" fill="#3E4776" />
<rect x="18" y="10" width="1" height="1" fill="#4A548C" />
<rect x="19" y="10" width="1" height="1" fill="#6674C1" />
<rect x="39" y="10" width="1" height="1" fill="#0D0D0D" opacity="0.670588" />
<rect x="40" y="10" width="1" height="1" fill="#3E4776" />
<rect x="41" y="10" width="1" height="1" fill="#3E4776" />
<rect x="42" y="10" width="1" height="1" fill="#4A548C" />
<rect x="43" y="10" width="1" height="1" fill="#6674C1" />
<rect x="44" y="10" width="1" height="1" fill="#C1866B" />
<rect x="45" y="10" width="1" height="1" fill="#E9A282" />
<rect x="46" y="10" width="1" height="1" fill="#E9A282" />
<rect x="47" y="10" width="1" height="1" fill="#E9A282" />
<rect x="48" y="10" width="1" height="1" fill="#E9A282" />
<rect x="49" y="10" width="1" height="1" fill="#3E4776" />
<rect x="50" y="10" width="1" height="1" fill="#4A548C" />
<rect x="51" y="10" width="1" height="1" fill="#6674C1" />
<rect x="7" y="11" width="1" height="1" fill="#0D0D0D" opacity="0.670588" />
<rect x="8" y="11" width="1" height="1" fill="#3E4776" />
<rect x="9" y="11" width="1" height="1" fill="#3E4776" />
<rect x="10" y="11" width="1" height="1" fill="#4A548C" />
<rect x="11" y="11" width="1" height="1" fill="#6674C1" />
<rect x="12" y="11" width="1" height="1" fill="#C1866B" />
<rect x="13" y="11" width="1" height="1" fill="#E9A282" />
<rect x="14" y="11" width="1" height="1" fill="#E9A282" />
<rect x="15" y="11" width="1" height="1" fill="#E9A282" />
<rect x="16" y="11" width="1" height="1" fill="#E9A282" />
<rect x="17" y="11" width="1" height="1" fill="#3E4776" />
<rect x="18" y="11" width="1" height="1" fill="#4A548C" />
<rect x="19" y="11" width="1" height="1" fill="#6674C1" />
<rect x="39" y="11" width="1" height="1" fill="#0D0D0D" opacity="0.670588" />
<rect x="40" y="11" width="1" height="1" fill="#3E4776" />
<rect x="41" y="11" width="1" height="1" fill="#3E4776" />
<rect x="42" y="11" width="1" height="1" fill="#4A548C" />
<rect x="43" y="11" width="1" height="1" fill="#6674C1" />
<rect x="44" y="11" width="1" height="1" fill="#C1866B" />
<rect x="45" y="11" width="1" height="1" fill="#000000" />
<rect x="46" y="11" width="1" height="1" fill="#000000" />
<rect x="47" y="11" width="1" height="1" fill="#E9A282" />
<rect x="48" y="11" width="1" height="1" fill="#000000" />
<rect x="49" y="11" width="1" height="1" fill="#3E4776" />
<rect x="50" y="11" width="1" height="1" fill="#4A548C" />
<rect x="51" y="11" width="1" height="1" fill="#6674C1" />
<rect x="7" y="12" width="1" height="1" fill="#0D0D0D" opacity="0.670588" />
<rect x="8" y="12" width="1" height="1" fill="#3E4776" />
<rect x="9" y="12" width="1" height="1" fill="#3E4776" />
<rect x="10" y="12" width="1" height="1" fill="#4A548C" />
<rect x="11" y="12" width="1" height="1" fill="#6674C1" />
<rect x="12" y="12" width="1" height="1" fill="#C1866B" />
<rect x="13" y="12" width="1" height="1" fill="#000000" />
<rect x="14" y="12" width="1" height="1" fill="#000000" />
<rect x="15" y="12" width="1" height="1" fill="#E9A282" />
<rect x="16" y="12" width="1" height="1" fill="#000000" />
<rect x="17" y="12" width="1" height="1" fill="#3E4776" />
<rect x="18" y="12" width="1" height="1" fill="#4A548C" />
<rect x="19" y="12" width="1" height="1" fill="#6674C1" />
<rect x="40" y="12" width="1" height="1" fill="#0D0D0D" opacity="0.670588" />
<rect x="41" y="12" width="1" height="1" fill="#3E4776" />
<rect x="42" y="12" width="1" height="1" fill="#4A548C" />
<rect x="43" y="12" width="1" height="1" fill="#6674C1" />
<rect x="44" y="12" width="1" height="1" fill="#C1866B" />
<rect x="45" y="12" width="1" height="1" fill="#E9A282" />
<rect x="46" y="12" width="1" height="1" fill="#E9A282" />
<rect x="47" y="12" width="1" height="1" fill="#E9A282" />
<rect x="48" y="12" width="1" height="1" fill="#E9A282" />
<rect x="49" y="12" width="1" height="1" fill="#3E4776" />
<rect x="50" y="12" width="1" height="1" fill="#4A548C" />
<rect x="51" y="12" width="1" height="1" fill="#6674C1" />
<rect x="8" y="13" width="1" height="1" fill="#0D0D0D" opacity="0.670588" />
<rect x="9" y="13" width="1" height="1" fill="#3E4776" />
<rect x="10" y="13" width="1" height="1" fill="#4A548C" />
<rect x="11" y="13" width="1" height="1" fill="#6674C1" />
<rect x="12" y="13" width="1" height="1" fill="#C1866B" />
<rect x="13" y="13" width="1" height="1" fill="#E9A282" />
<rect x="14" y="13" width="1" height="1" fill="#E9A282" />
<rect x="15" y="13" width="1" height="1" fill="#E9A282" />
<rect x="16" y="13" width="1" height="1" fill="#E9A282" />
<rect x="17" y="13" width="1" height="1" fill="#3E4776" />
<rect x="18" y="13" width="1" height="1" fill="#4A548C" />
<rect x="19" y="13" width="1" height="1" fill="#6674C1" />
<rect x="40" y="13" width="1" height="1" fill="#0D0D0D" opacity="0.670588" />
<rect x="41" y="13" width="1" height="1" fill="#3E4776" />
<rect x="42" y="13" width="1" height="1" fill="#4A548C" />
<rect x="43" y="13" width="1" height="1" fill="#6674C1" />
<rect x="44" y="13" width="1" height="1" fill="#C1866B" />
<rect x="45" y="13" width="1" height="1" fill="#E9A282" />
<rect x="46" y="13" width="1" height="1" fill="#E9A282" />
<rect x="47" y="13" width="1" height="1" fill="#E9A282" />
<rect x="48" y="13" width="1" height="1" fill="#E9A282" />
<rect x="49" y="13" width="1" height="1" fill="#3E4776" />
<rect x="50" y="13" width="1" height="1" fill="#6674C1" />
<rect x="8" y="14" width="1" height="1" fill="#0D0D0D" opacity="0.670588" />
<rect x="9" y="14" width="1" height="1" fill="#3E4776" />
<rect x="10" y="14" width="1" height="1" fill="#4A548C" />
<rect x="11" y="14" width="1" height="1" fill="#6674C1" />
<rect x="12" y="14" width="1" height="1" fill="#C1866B" />
<rect x="13" y="14" width="1" height="1" fill="#E9A282" />
<rect x="14" y="14" width="1" height="1" fill="#E9A282" />
<rect x="15" y="14" width="1" height="1" fill="#E9A282" />
<rect x="16" y="14" width="1" height="1" fill="#E9A282" />
<rect x="17" y="14" width="1" height="1" fill="#3E4776" />
<rect x="18" y="14" width="1" height="1" fill="#6674C1" />
<rect x="40" y="14" width="1" height="1" fill="#0D0D0D" opacity="0.670588" />
<rect x="41" y="14" width="1" height="1" fill="#0D0D0D" opacity="0.670588" />
<rect x="42" y="14" width="1" height="1" fill="#4A548C" />
<rect x="43" y="14" width="1" height="1" fill="#6674C1" />
<rect x="44" y="14" width="1" height="1" fill="#6674C1" />
<rect x="45" y="14" width="1" height="1" fill="#6674C1" />
<rect x="46" y="14" width="1" height="1" fill="#6674C1" />
<rect x="47" y="14" width="1" height="1" fill="#6674C1" />
<rect x="48" y="14" width="1" height="1" fill="#6674C1" />
<rect x="49" y="14" width="1" height="1" fill="#6674C1" />
<rect x="8" y="15" width="1" height="1" fill="#0D0D0D" opacity="0.670588" />
<rect x="9" y="15" width="1" height="1" fill="#0D0D0D" opacity="0.670588" />
<rect x="10" y="15" width="1" height="1" fill="#4A548C" />
<rect x="11" y="15" width="1" height="1" fill="#6674C1" />
<rect x="12" y="15" width="1" height="1" fill="#6674C1" />
<rect x="13" y="15" width="1" height="1" fill="#6674C1" />
<rect x="14" y="15" width="1" height="1" fill="#6674C1" />
<rect x="15" y="15" width="1" height="1" fill="#6674C1" />
<rect x="16" y="15" width="1" height="1" fill="#6674C1" />
<rect x="17" y="15" width="1" height="1" fill="#6674C1" />
<rect x="40" y="15" width="1" height="1" fill="#0D0D0D" opacity="0.670588" />
<rect x="41" y="15" width="1" height="1" fill="#9B5D61" />
<rect x="42" y="15" width="1" height="1" fill="#9B5D61" />
<rect x="43" y="15" width="1" height="1" fill="#66454C" />
<rect x="44" y="15" width="1" height="1" fill="#76474A" />
<rect x="45" y="15" width="1" height="1" fill="#3E4776" />
<rect x="46" y="15" width="1" height="1" fill="#3E4776" />
<rect x="47" y="15" width="1" height="1" fill="#3E4776" />
<rect x="48" y="15" width="1" height="1" fill="#814A4D" />
<rect x="49" y="15" width="1" height="1" fill="#9B5D61" />
<rect x="50" y="15" width="1" height="1" fill="#9B5D61" />
<rect x="51" y="15" width="1" height="1" fill="#9B5D61" />
<rect x="8" y="16" width="1" height="1" fill="#0D0D0D" opacity="0.670588" />
<rect x="9" y="16" width="1" height="1" fill="#9B5D61" />
<rect x="10" y="16" width="1" height="1" fill="#9B5D61" />
<rect x="11" y="16" width="1" height="1" fill="#66454C" />
<rect x="12" y="16" width="1" height="1" fill="#76474A" />
<rect x="13" y="16" width="1" height="1" fill="#3E4776" />
<rect x="14" y="16" width="1" height="1" fill="#3E4776" />
<rect x="15" y="16" width="1" height="1" fill="#3E4776" />
<rect x="16" y="16" width="1" height="1" fill="#814A4D" />
<rect x="17" y="16" width="1" height="1" fill="#9B5D61" />
<rect x="18" y="16" width="1" height="1" fill="#9B5D61" />
<rect x="19" y="16" width="1" height="1" fill="#9B5D61" />
<rect x="40" y="16" width="1" height="1" fill="#0D0D0D" opacity="0.670588" />
<rect x="41" y="16" width="1" height="1" fill="#835053" />
<rect x="42" y="16" width="1" height="1" fill="#835053" />
<rect x="43" y="16" width="1" height="1" fill="#835053" />
<rect x="44" y="16" width="1" height="1" fill="#66454C" />
<rect x="45" y="16" width="1" height="1" fill="#83474A" />
<rect x="46" y="16" width="1" height="1" fill="#835053" />
<rect x="47" y="16" width="1" height="1" fill="#814A4D" />
<rect x="48" y="16" width="1" height="1" fill="#83474A" />
<rect x="49" y="16" width="1" height="1" fill="#835053" />
<rect x="50" y="16" width="1" height="1" fill="#814A4D" />
<rect x="51" y="16" width="1" height="1" fill="#835053" />
<rect x="8" y="17" width="1" height="1" fill="#0D0D0D" opacity="0.670588" />
<rect x="9" y="17" width="1" height="1" fill="#835053" />
<rect x="10" y="17" width="1" height="1" fill="#835053" />
<rect x="11" y="17" width="1" height="1" fill="#835053" />
<rect x="12" y="17" width="1" height="1" fill="#66454C" />
<rect x="13" y="17" width="1" height="1" fill="#83474A" />
<rect x="14" y="17" width="1" height="1" fill="#835053" />
<rect x="15" y="17" width="1" height="1" fill="#814A4D" />
<rect x="16" y="17" width="1" height="1" fill="#83474A" />
<rect x="17" y="17" width="1" height="1" fill="#835053" />
<rect x="18" y="17" width="1" height="1" fill="#814A4D" />
<rect x="19" y="17" width="1" height="1" fill="#835053" />
<rect x="39" y="17" width="1" height="1" fill="#0D0D0D" opacity="0.670588" />
<rect x="40" y="17" width="1" height="1" fill="#835053" />
<rect x="41" y="17" width="1" height="1" fill="#835053" />
<rect x="42" y="17" width="1" height="1" fill="#814A4D" />
<rect x="43" y="17" width="1" height="1" fill="#835053" />
<rect x="44" y="17" width="1" height="1" fill="#835053" />
<rect x="45" y="17" width="1" height="1" fill="#7385E0" />
<rect x="46" y="17" width="1" height="1" fill="#7385E0" />
<rect x="47" y="17" width="1" height="1" fill="#7385E0" />
<rect x="48" y="17" width="1" height="1" fill="#7385E0" />
<rect x="49" y="17" width="1" height="1" fill="#222537" />
<rect x="50" y="17" width="1" height="1" fill="#835053" />
<rect x="51" y="17" width="1" height="1" fill="#814A4D" />
<rect x="7" y="18" width="1" height="1" fill="#0D0D0D" opacity="0.670588" />
<rect x="8" y="18" width="1" height="1" fill="#835053" />
<rect x="9" y="18" width="1" height="1" fill="#835053" />
<rect x="10" y="18" width="1" height="1" fill="#814A4D" />
<rect x="11" y="18" width="1" height="1" fill="#835053" />
<rect x="12" y="18" width="1" height="1" fill="#835053" />
<rect x="13" y="18" width="1" height="1" fill="#7385E0" />
<rect x="14" y="18" width="1" height="1" fill="#7385E0" />
<rect x="15" y="18" width="1" height="1" fill="#7385E0" />
<rect x="16" y="18" width="1" height="1" fill="#7385E0" />
<rect x="17" y="18" width="1" height="1" fill="#222537" />
<rect x="18" y="18" width="1" height="1" fill="#835053" />
<rect x="19" y="18" width="1" height="1" fill="#814A4D" />
<rect x="39" y="18" width="1" height="1" fill="#0D0D0D" opacity="0.670588" />
<rect x="40" y="18" width="1" height="1" fill="#83474A" />
<rect x="41" y="18" width="1" height="1" fill="#835053" />
<rect x="42" y="18" width="1" height="1" fill="#83474A" />
<rect x="43" y="18" width="1" height="1" fill="#835053" />
<rect x="44" y="18" width="1" height="1" fill="#643A3D" />
<rect x="45" y="18" width="1" height="1" fill="#7385E0" />
<rect x="46" y="18" width="1" height="1" fill="#66454C" />
<rect x="47" y="18" width="1" height="1" fill="#835053" />
<rect x="48" y="18" width="1" height="1" fill="#7385E0" />
<rect x="49" y="18" width="1" height="1" fill="#222537" />
<rect x="50" y="18" width="1" height="1" fill="#835053" />
<rect x="51" y="18" width="1" height="1" fill="#835053" />
<rect x="7" y="19" width="1" height="1" fill="#0D0D0D" opacity="0.670588" />
<rect x="8" y="19" width="1" height="1" fill="#83474A" />
<rect x="9" y="19" width="1" height="1" fill="#835053" />
<rect x="10" y="19" width="1" height="1" fill="#83474A" />
<rect x="11" y="19" width="1" height="1" fill="#835053" />
<rect x="12" y="19" width="1" height="1" fill="#643A3D" />
<rect x="13" y="19" width="1" height="1" fill="#7385E0" />
<rect x="14" y="19" width="1" height="1" fill="#66454C" />
<rect x="15" y="19" width="1" height="1" fill="#835053" />
<rect x="16" y="19" width="1" height="1" fill="#7385E0" />
<rect x="17" y="19" width="1" height="1" fill="#222537" />
<rect x="18" y="19" width="1" height="1" fill="#835053" />
<rect x="19" y="19" width="1" height="1" fill="#835053" />
<rect x="38" y="19" width="1" height="1" fill="#0D0D0D" opacity="0.670588" />
<rect x="39" y="19" width="1" height="1" fill="#F7C773" />
<rect x="40" y="19" width="1" height="1" fill="#814A4D" />
<rect x="41" y="19" width="1" height="1" fill="#835053" />
<rect x="43" y="19" width="1" height="1" fill="#222537" />
<rect x="44" y="19" width="1" height="1" fill="#643A3D" />
<rect x="45" y="19" width="1" height="1" fill="#7385E0" />
<rect x="46" y="19" width="1" height="1" fill="#814A4D" />
<rect x="47" y="19" width="1" height="1" fill="#66454C" />
<rect x="48" y="19" width="1" height="1" fill="#7385E0" />
<rect x="49" y="19" width="1" height="1" fill="#222537" />
<rect x="50" y="19" width="1" height="1" fill="#835053" />
<rect x="51" y="19" width="1" height="1" fill="#835053" />
<rect x="52" y="19" width="1" height="1" fill="#835053" />
<rect x="6" y="20" width="1" height="1" fill="#0D0D0D" opacity="0.670588" />
<rect x="7" y="20" width="1" height="1" fill="#F7C773" />
<rect x="8" y="20" width="1" height="1" fill="#814A4D" />
<rect x="9" y="20" width="1" height="1" fill="#835053" />
<rect x="11" y="20" width="1" height="1" fill="#222537" />
<rect x="12" y="20" width="1" height="1" fill="#643A3D" />
<rect x="13" y="20" width="1" height="1" fill="#7385E0" />
<rect x="14" y="20" width="1" height="1" fill="#814A4D" />
<rect x="15" y="20" width="1" height="1" fill="#66454C" />
<rect x="16" y="20" width="1" height="1" fill="#7385E0" />
<rect x="17" y="20" width="1" height="1" fill="#222537" />
<rect x="18" y="20" width="1" height="1" fill="#835053" />
<rect x="19" y="20" width="1" height="1" fill="#835053" />
<rect x="20" y="20" width="1" height="1" fill="#835053" />
<rect x="39" y="20" width="1" height="1" fill="#0D0D0D" opacity="0.670588" />
<rect x="40" y="20" width="1" height="1" fill="#000000" />
<rect x="41" y="20" width="1" height="1" fill="#000000" />
<rect x="42" y="20" width="1" height="1" fill="#F7C773" />
<rect x="43" y="20" width="1" height="1" fill="#222537" />
<rect x="44" y="20" width="1" height="1" fill="#643A3D" />
<rect x="45" y="20" width="1" height="1" fill="#7385E0" />
<rect x="46" y="20" width="1" height="1" fill="#7385E0" />
<rect x="47" y="20" width="1" height="1" fill="#7385E0" />
<rect x="48" y="20" width="1" height="1" fill="#66454C" />
<rect x="49" y="20" width="1" height="1" fill="#4A548C" />
<rect x="50" y="20" width="1" height="1" fill="#0D0D0D" opacity="0.670588" />
<rect x="51" y="20" width="1" height="1" fill="#643A3D" />
<rect x="52" y="20" width="1" height="1" fill="#814A4D" />
<rect x="53" y="20" width="1" height="1" fill="#000000" />
<rect x="54" y="20" width="1" height="1" fill="#F7C773" />
<rect x="7" y="21" width="1" height="1" fill="#0D0D0D" opacity="0.670588" />
<rect x="8" y="21" width="1" height="1" fill="#000000" />
<rect x="9" y="21" width="1" height="1" fill="#000000" />
<rect x="10" y="21" width="1" height="1" fill="#F7C773" />
<rect x="11" y="21" width="1" height="1" fill="#222537" />
<rect x="12" y="21" width="1" height="1" fill="#643A3D" />
<rect x="13" y="21" width="1" height="1" fill="#7385E0" />
<rect x="14" y="21" width="1" height="1" fill="#7385E0" />
<rect x="15" y="21" width="1" height="1" fill="#7385E0" />
<rect x="16" y="21" width="1" height="1" fill="#66454C" />
<rect x="17" y="21" width="1" height="1" fill="#4A548C" />
<rect x="18" y="21" width="1" height="1" fill="#0D0D0D" opacity="0.670588" />
<rect x="19" y="21" width="1" height="1" fill="#643A3D" />
<rect x="20" y="21" width="1" height="1" fill="#814A4D" />
<rect x="21" y="21" width="1" height="1" fill="#000000" />
<rect x="22" y="21" width="1" height="1" fill="#F7C773" />
<rect x="39" y="21" width="1" height="1" fill="#0D0D0D" opacity="0.670588" />
<rect x="40" y="21" width="1" height="1" fill="#000000" />
<rect x="41" y="21" width="1" height="1" fill="#F7C773" />
<rect x="42" y="21" width="1" height="1" fill="#9195D3" />
<rect x="43" y="21" width="1" height="1" fill="#222537" />
<rect x="44" y="21" width="1" height="1" fill="#643A3D" />
<rect x="45" y="21" width="1" height="1" fill="#7385E0" />
<rect x="46" y="21" width="1" height="1" fill="#835053" />
<rect x="47" y="21" width="1" height="1" fill="#835053" />
<rect x="48" y="21" width="1" height="1" fill="#814A4D" />
<rect x="49" y="21" width="1" height="1" fill="#4A548C" />
<rect x="50" y="21" width="1" height="1" fill="#0D0D0D" opacity="0.670588" />
<rect x="51" y="21" width="1" height="1" fill="#0D0D0D" opacity="0.670588" />
<rect x="52" y="21" width="1" height="1" fill="#000000" />
<rect x="53" y="21" width="1" height="1" fill="#F7C773" />
<rect x="54" y="21" width="1" height="1" fill="#9195D3" />
<rect x="7" y="22" width="1" height="1" fill="#0D0D0D" opacity="0.670588" />
<rect x="8" y="22" width="1" height="1" fill="#000000" />
<rect x="9" y="22" width="1" height="1" fill="#F7C773" />
<rect x="10" y="22" width="1" height="1" fill="#9195D3" />
<rect x="11" y="22" width="1" height="1" fill="#222537" />
<rect x="12" y="22" width="1" height="1" fill="#643A3D" />
<rect x="13" y="22" width="1" height="1" fill="#7385E0" />
<rect x="14" y="22" width="1" height="1" fill="#835053" />
<rect x="15" y="22" width="1" height="1" fill="#835053" />
<rect x="16" y="22" width="1" height="1" fill="#814A4D" />
<rect x="17" y="22" width="1" height="1" fill="#4A548C" />
<rect x="18" y="22" width="1" height="1" fill="#0D0D0D" opacity="0.670588" />
<rect x="19" y="22" width="1" height="1" fill="#0D0D0D" opacity="0.670588" />
<rect x="20" y="22" width="1" height="1" fill="#000000" />
<rect x="21" y="22" width="1" height="1" fill="#F7C773" />
<rect x="22" y="22" width="1" height="1" fill="#9195D3" />
<rect x="39" y="22" width="1" height="1" fill="#0D0D0D" opacity="0.670588" />
<rect x="40" y="22" width="1" height="1" fill="#F7C773" />
<rect x="41" y="22" width="1" height="1" fill="#777BB3" />
<rect x="42" y="22" width="1" height="1" fill="#9195D3" />
<rect x="43" y="22" width="1" height="1" fill="#9195D3" />
<rect x="44" y="22" width="1" height="1" fill="#1F1617" />
<rect x="45" y="22" width="1" height="1" fill="#7385E0" />
<rect x="46" y="22" width="1" height="1" fill="#814A4D" />
<rect x="47" y="22" width="1" height="1" fill="#814A4D" />
<rect x="48" y="22" width="1" height="1" fill="#83474A" />
<rect x="49" y="22" width="1" height="1" fill="#4A548C" />
<rect x="50" y="22" width="1" height="1" fill="#0D0D0D" opacity="0.670588" />
<rect x="51" y="22" width="1" height="1" fill="#0D0D0D" opacity="0.670588" />
<rect x="52" y="22" width="1" height="1" fill="#F7C773" />
<rect x="53" y="22" width="1" height="1" fill="#777BB3" />
<rect x="54" y="22" width="1" height="1" fill="#9195D3" />
<rect x="55" y="22" width="1" height="1" fill="#9195D3" />
<rect x="7" y="23" width="1" height="1" fill="#0D0D0D" opacity="0.670588" />
<rect x="8" y="23" width="1" height="1" fill="#F7C773" />
<rect x="9" y="23" width="1" height="1" fill="#777BB3" />
<rect x="10" y="23" width="1" height="1" fill="#9195D3" />
<rect x="11" y="23" width="1" height="1" fill="#9195D3" />
<rect x="12" y="23" width="1" height="1" fill="#1F1617" />
<rect x="13" y="23" width="1" height="1" fill="#7385E0" />
<rect x="14" y="23" width="1" height="1" fill="#814A4D" />
<rect x="15" y="23" width="1" height="1" fill="#814A4D" />
<rect x="16" y="23" width="1" height="1" fill="#83474A" />
<rect x="17" y="23" width="1" height="1" fill="#4A548C" />
<rect x="18" y="23" width="1" height="1" fill="#0D0D0D" opacity="0.670588" />
<rect x="19" y="23" width="1" height="1" fill="#0D0D0D" opacity="0.670588" />
<rect x="20" y="23" width="1" height="1" fill="#F7C773" />
<rect x="21" y="23" width="1" height="1" fill="#777BB3" />
<rect x="22" y="23" width="1" height="1" fill="#9195D3" />
<rect x="23" y="23" width="1" height="1" fill="#9195D3" />
<rect x="39" y="23" width="1" height="1" fill="#0D0D0D" opacity="0.670588" />
<rect x="40" y="23" width="1" height="1" fill="#0D0D0D" opacity="0.670588" />
<rect x="41" y="23" width="1" height="1" fill="#0D0D0D" opacity="0.670588" />
<rect x="42" y="23" width="1" height="1" fill="#777BB3" />
<rect x="43" y="23" width="1" height="1" fill="#9195D3" />
<rect x="44" y="23" width="1" height="1" fill="#9195D3" />
<rect x="45" y="23" width="1" height="1" fill="#814A4D" />
<rect x="46" y="23" width="1" height="1" fill="#835053" />
<rect x="47" y="23" width="1" height="1" fill="#814A4D" />
<rect x="48" y="23" width="1" height="1" fill="#835053" />
<rect x="49" y="23" width="1" height="1" fill="#4A548C" />
<rect x="50" y="23" width="1" height="1" fill="#0D0D0D" opacity="0.670588" />
<rect x="51" y="23" width="1" height="1" fill="#0D0D0D" opacity="0.670588" />
<rect x="52" y="23" width="1" height="1" fill="#0D0D0D" opacity="0.670588" />
<rect x="53" y="23" width="1" height="1" fill="#0D0D0D" opacity="0.670588" />
<rect x="54" y="23" width="1" height="1" fill="#777BB3" />
<rect x="55" y="23" width="1" height="1" fill="#9195D3" />
<rect x="56" y="23" width="1" height="1" fill="#9195D3" />
<rect x="7" y="24" width="1" height="1" fill="#0D0D0D" opacity="0.670588" />
<rect x="8" y="24" width="1" height="1" fill="#0D0D0D" opacity="0.670588" />
<rect x="9" y="24" width="1" height="1" fill="#0D0D0D" opacity="0.670588" />
<rect x="10" y="24" width="1" height="1" fill="#777BB3" />
<rect x="11" y="24" width="1" height="1" fill="#9195D3" />
<rect x="12" y="24" width="1" height="1" fill="#9195D3" />
<rect x="13" y="24" width="1" height="1" fill="#814A4D" />
<rect x="14" y="24" width="1" height="1" fill="#835053" />
<rect x="15" y="24" width="1" height="1" fill="#814A4D" />
<rect x="16" y="24" width="1" height="1" fill="#835053" />
<rect x="17" y="24" width="1" height="1" fill="#4A548C" />
<rect x="18" y="24" width="1" height="1" fill="#0D0D0D" opacity="0.670588" />
<rect x="19" y="24" width="1" height="1" fill="#0D0D0D" opacity="0.670588" />
<rect x="20" y="24" width="1" height="1" fill="#0D0D0D" opacity="0.670588" />
<rect x="21" y="24" width="1" height="1" fill="#0D0D0D" opacity="0.670588" />
<rect x="22" y="24" width="1" height="1" fill="#777BB3" />
<rect x="23" y="24" width="1" height="1" fill="#9195D3" />
<rect x="24" y="24" width="1" height="1" fill="#9195D3" />
<rect x="41" y="24" width="1" height="1" fill="#0D0D0D" opacity="0.670588" />
<rect x="42" y="24" width="1" height="1" fill="#3B4370" />
<rect x="43" y="24" width="1" height="1" fill="#777BB3" />
<rect x="44" y="24" width="1" height="1" fill="#9195D3" />
<rect x="45" y="24" width="1" height="1" fill="#9195D3" />
<rect x="46" y="24" width="1" height="1" fill="#DFE2CD" />
<rect x="47" y="24" width="1" height="1" fill="#66454C" />
<rect x="48" y="24" width="1" height="1" fill="#66454C" />
<rect x="49" y="24" width="1" height="1" fill="#4A548C" />
<rect x="50" y="24" width="1" height="1" fill="#0D0D0D" opacity="0.670588" />
<rect x="54" y="24" width="1" height="1" fill="#0D0D0D" opacity="0.670588" />
<rect x="55" y="24" width="1" height="1" fill="#777BB3" />
<rect x="56" y="24" width="1" height="1" fill="#9195D3" />
<rect x="57" y="24" width="1" height="1" fill="#9195D3" />
<rect x="9" y="25" width="1" height="1" fill="#0D0D0D" opacity="0.670588" />
<rect x="10" y="25" width="1" height="1" fill="#3B4370" />
<rect x="11" y="25" width="1" height="1" fill="#777BB3" />
<rect x="12" y="25" width="1" height="1" fill="#9195D3" />
<rect x="13" y="25" width="1" height="1" fill="#9195D3" />
<rect x="14" y="25" width="1" height="1" fill="#DFE2CD" />
<rect x="15" y="25" width="1" height="1" fill="#66454C" />
<rect x="16" y="25" width="1" height="1" fill="#66454C" />
<rect x="17" y="25" width="1" height="1" fill="#4A548C" />
<rect x="18" y="25" width="1" height="1" fill="#0D0D0D" opacity="0.670588" />
<rect x="22" y="25" width="1" height="1" fill="#0D0D0D" opacity="0.670588" />
<rect x="23" y="25" width="1" height="1" fill="#777BB3" />
<rect x="24" y="25" width="1" height="1" fill="#9195D3" />
<rect x="25" y="25" width="1" height="1" fill="#9195D3" />
<rect x="40" y="25" width="1" height="1" fill="#0D0D0D" opacity="0.670588" />
<rect x="41" y="25" width="1" height="1" fill="#3B4370" />
<rect x="42" y="25" width="1" height="1" fill="#3B4370" />
<rect x="43" y="25" width="1" height="1" fill="#26191A" />
<rect x="44" y="25" width="1" height="1" fill="#777BB3" />
<rect x="45" y="25" width="1" height="1" fill="#9195D3" />
<rect x="46" y="25" width="1" height="1" fill="#9195D3" />
<rect x="47" y="25" width="1" height="1" fill="#83474A" />
<rect x="48" y="25" width="1" height="1" fill="#83474A" />
<rect x="49" y="25" width="1" height="1" fill="#3B4370" />
<rect x="50" y="25" width="1" height="1" fill="#3B4370" />
<rect x="51" y="25" width="1" height="1" fill="#0D0D0D" opacity="0.670588" />
<rect x="52" y="25" width="1" height="1" fill="#0D0D0D" opacity="0.670588" />
<rect x="55" y="25" width="1" height="1" fill="#0D0D0D" opacity="0.670588" />
<rect x="56" y="25" width="1" height="1" fill="#777BB3" />
<rect x="57" y="25" width="1" height="1" fill="#9195D3" />
<rect x="58" y="25" width="1" height="1" fill="#9195D3" />
<rect x="8" y="26" width="1" height="1" fill="#0D0D0D" opacity="0.670588" />
<rect x="9" y="26" width="1" height="1" fill="#3B4370" />
<rect x="10" y="26" width="1" height="1" fill="#3B4370" />
<rect x="11" y="26" width="1" height="1" fill="#26191A" />
<rect x="12" y="26" width="1" height="1" fill="#777BB3" />
<rect x="13" y="26" width="1" height="1" fill="#9195D3" />
<rect x="14" y="26" width="1" height="1" fill="#9195D3" />
<rect x="15" y="26" width="1" height="1" fill="#83474A" />
<rect x="16" y="26" width="1" height="1" fill="#83474A" />
<rect x="17" y="26" width="1" height="1" fill="#3B4370" />
<rect x="18" y="26" width="1" height="1" fill="#3B4370" />
<rect x="19" y="26" width="1" height="1" fill="#0D0D0D" opacity="0.670588" />
<rect x="20" y="26" width="1" height="1" fill="#0D0D0D" opacity="0.670588" />
<rect x="23" y="26" width="1" height="1" fill="#0D0D0D" opacity="0.670588" />
<rect x="24" y="26" width="1" height="1" fill="#777BB3" />
<rect x="25" y="26" width="1" height="1" fill="#9195D3" />
<rect x="26" y="26" width="1" height="1" fill="#9195D3" />
<rect x="39" y="26" width="1" height="1" fill="#0D0D0D" opacity="0.670588" />
<rect x="40" y="26" width="1" height="1" fill="#3B4370" />
<rect x="41" y="26" width="1" height="1" fill="#3B4370" />
<rect x="42" y="26" width="1" height="1" fill="#A86A6D" />
<rect x="43" y="26" width="1" height="1" fill="#A86A6D" />
<rect x="44" y="26" width="1" height="1" fill="#3B4370" />
<rect x="45" y="26" width="1" height="1" fill="#777BB3" />
<rect x="46" y="26" width="1" height="1" fill="#9195D3" />
<rect x="47" y="26" width="1" height="1" fill="#3B4370" />
<rect x="48" y="26" width="1" height="1" fill="#83474A" />
<rect x="49" y="26" width="1" height="1" fill="#83474A" />
<rect x="50" y="26" width="1" height="1" fill="#3B4370" />
<rect x="51" y="26" width="1" height="1" fill="#3B4370" />
<rect x="52" y="26" width="1" height="1" fill="#0D0D0D" opacity="0.670588" />
<rect x="56" y="26" width="1" height="1" fill="#0D0D0D" opacity="0.670588" />
<rect x="57" y="26" width="1" height="1" fill="#777BB3" />
<rect x="58" y="26" width="1" height="1" fill="#9195D3" />
<rect x="7" y="27" width="1" height="1" fill="#0D0D0D" opacity="0.670588" />
<rect x="8" y="27" width="1" height="1" fill="#3B4370" />
<rect x="9" y="27" width="1" height="1" fill="#3B4370" />
<rect x="10" y="27" width="1" height="1" fill="#A86A6D" />
<rect x="11" y="27" width="1" height="1" fill="#A86A6D" />
<rect x="12" y="27" width="1" height="1" fill="#3B4370" />
<rect x="13" y="27" width="1" height="1" fill="#777BB3" />
<rect x="14" y="27" width="1" height="1" fill="#9195D3" />
<rect x="15" y="27" width="1" height="1" fill="#3B4370" />
<rect x="16" y="27" width="1" height="1" fill="#83474A" />
<rect x="17" y="27" width="1" height="1" fill="#83474A" />
<rect x="18" y="27" width="1" height="1" fill="#3B4370" />
<rect x="19" y="27" width="1" height="1" fill="#3B4370" />
<rect x="20" y="27" width="1" height="1" fill="#0D0D0D" opacity="0.670588" />
<rect x="24" y="27" width="1" height="1" fill="#0D0D0D" opacity="0.670588" />
<rect x="25" y="27" width="1" height="1" fill="#777BB3" />
<rect x="26" y="27" width="1" height="1" fill="#9195D3" />
<rect x="39" y="27" width="1" height="1" fill="#0D0D0D" opacity="0.670588" />
<rect x="40" y="27" width="1" height="1" fill="#0D0D0D" opacity="0.670588" />
<rect x="41" y="27" width="1" height="1" fill="#0D0D0D" opacity="0.670588" />
<rect x="42" y="27" width="1" height="1" fill="#A86A6D" />
<rect x="43" y="27" width="1" height="1" fill="#A86A6D" />
<rect x="44" y="27" width="1" height="1" fill="#3B4370" />
<rect x="45" y="27" width="1" height="1" fill="#3B4370" />
<rect x="46" y="27" width="1" height="1" fill="#3B4370" />
<rect x="47" y="27" width="1" height="1" fill="#3B4370" />
<rect x="48" y="27" width="1" height="1" fill="#814A4D" />
<rect x="49" y="27" width="1" height="1" fill="#83474A" />
<rect x="50" y="27" width="1" height="1" fill="#0D0D0D" opacity="0.670588" />
<rect x="51" y="27" width="1" height="1" fill="#0D0D0D" opacity="0.670588" />
<rect x="52" y="27" width="1" height="1" fill="#0D0D0D" opacity="0.670588" />
<rect x="57" y="27" width="1" height="1" fill="#0D0D0D" opacity="0.670588" />
<rect x="58" y="27" width="1" height="1" fill="#0D0D0D" opacity="0.670588" />
<rect x="7" y="28" width="1" height="1" fill="#0D0D0D" opacity="0.670588" />
<rect x="8" y="28" width="1" height="1" fill="#3B4370" />
<rect x="9" y="28" width="1" height="1" fill="#3B4370" />
<rect x="10" y="28" width="1" height="1" fill="#A86A6D" />
<rect x="11" y="28" width="1" height="1" fill="#A86A6D" />
<rect x="12" y="28" width="1" height="1" fill="#3B4370" />
<rect x="13" y="28" width="1" height="1" fill="#3B4370" />
<rect x="14" y="28" width="1" height="1" fill="#3B4370" />
<rect x="15" y="28" width="1" height="1" fill="#3B4370" />
<rect x="16" y="28" width="1" height="1" fill="#814A4D" />
<rect x="17" y="28" width="1" height="1" fill="#83474A" />
<rect x="18" y="28" width="1" height="1" fill="#3B4370" />
<rect x="19" y="28" width="1" height="1" fill="#3B4370" />
<rect x="20" y="28" width="1" height="1" fill="#0D0D0D" opacity="0.670588" />
<rect x="25" y="28" width="1" height="1" fill="#0D0D0D" opacity="0.670588" />
<rect x="26" y="28" width="1" height="1" fill="#0D0D0D" opacity="0.670588" />
<rect x="42" y="28" width="1" height="1" fill="#A86A6D" />
<rect x="43" y="28" width="1" height="1" fill="#A86A6D" />
<rect x="44" y="28" width="1" height="1" fill="#0D0D0D" opacity="0.670588" />
<rect x="45" y="28" width="1" height="1" fill="#3B4370" />
<rect x="46" y="28" width="1" height="1" fill="#3B4370" />
<rect x="47" y="28" width="1" height="1" fill="#0D0D0D" opacity="0.670588" />
<rect x="48" y="28" width="1" height="1" fill="#83474A" />
<rect x="49" y="28" width="1" height="1" fill="#83474A" />
<rect x="7" y="29" width="1" height="1" fill="#0D0D0D" opacity="0.670588" />
<rect x="8" y="29" width="1" height="1" fill="#0D0D0D" opacity="0.670588" />
<rect x="9" y="29" width="1" height="1" fill="#A86A6D" />
<rect x="10" y="29" width="1" height="1" fill="#A86A6D" />
<rect x="11" y="29" width="1" height="1" fill="#0D0D0D" opacity="0.670588" />
<rect x="12" y="29" width="1" height="1" fill="#0D0D0D" opacity="0.670588" />
<rect x="13" y="29" width="1" height="1" fill="#0D0D0D" opacity="0.670588" />
<rect x="14" y="29" width="1" height="1" fill="#0D0D0D" opacity="0.670588" />
<rect x="15" y="29" width="1" height="1" fill="#0D0D0D" opacity="0.670588" />
<rect x="16" y="29" width="1" height="1" fill="#83474A" />
<rect x="17" y="29" width="1" height="1" fill="#814A4D" />
<rect x="18" y="29" width="1" height="1" fill="#0D0D0D" opacity="0.670588" />
<rect x="19" y="29" width="1" height="1" fill="#0D0D0D" opacity="0.670588" />
<rect x="20" y="29" width="1" height="1" fill="#0D0D0D" opacity="0.670588" />
<rect x="41" y="29" width="1" height="1" fill="#A86A6D" />
<rect x="42" y="29" width="1" height="1" fill="#A86A6D" />
<rect x="43" y="29" width="1" height="1" fill="#0D0D0D" opacity="0.670588" />
<rect x="44" y="29" width="1" height="1" fill="#0D0D0D" opacity="0.670588" />
<rect x="47" y="29" width="1" height="1" fill="#0D0D0D" opacity="0.670588" />
<rect x="48" y="29" width="1" height="1" fill="#83474A" />
<rect x="49" y="29" width="1" height="1" fill="#814A4D" />
<rect x="9" y="30" width="1" height="1" fill="#66454C" />
<rect x="10" y="30" width="1" height="1" fill="#7C555E" />
<rect x="11" y="30" width="1" height="1" fill="#0D0D0D" opacity="0.670588" />
<rect x="12" y="30" width="1" height="1" fill="#0D0D0D" opacity="0.670588" />
<rect x="15" y="30" width="1" height="1" fill="#0D0D0D" opacity="0.670588" />
<rect x="16" y="30" width="1" height="1" fill="#66454C" />
<rect x="17" y="30" width="1" height="1" fill="#7C555E" />
<rect x="41" y="30" width="1" height="1" fill="#66454C" />
<rect x="42" y="30" width="1" height="1" fill="#7C555E" />
<rect x="43" y="30" width="1" height="1" fill="#0D0D0D" opacity="0.670588" />
<rect x="44" y="30" width="1" height="1" fill="#0D0D0D" opacity="0.670588" />
<rect x="47" y="30" width="1" height="1" fill="#0D0D0D" opacity="0.670588" />
<rect x="48" y="30" width="1" height="1" fill="#66454C" />
<rect x="49" y="30" width="1" height="1" fill="#7C555E" />
<rect x="9" y="31" width="1" height="1" fill="#66454C" />
<rect x="10" y="31" width="1" height="1" fill="#7C555E" />
<rect x="11" y="31" width="1" height="1" fill="#7C555E" />
<rect x="12" y="31" width="1" height="1" fill="#0D0D0D" opacity="0.670588" />
<rect x="15" y="31" width="1" height="1" fill="#0D0D0D" opacity="0.670588" />
<rect x="16" y="31" width="1" height="1" fill="#66454C" />
<rect x="17" y="31" width="1" height="1" fill="#7C555E" />
<rect x="18" y="31" width="1" height="1" fill="#7C555E" />
<rect x="41" y="31" width="1" height="1" fill="#66454C" />
<rect x="42" y="31" width="1" height="1" fill="#7C555E" />
<rect x="43" y="31" width="1" height="1" fill="#7C555E" />
<rect x="44" y="31" width="1" height="1" fill="#0D0D0D" opacity="0.670588" />
<rect x="47" y="31" width="1" height="1" fill="#0D0D0D" opacity="0.670588" />
<rect x="48" y="31" width="1" height="1" fill="#66454C" />
<rect x="49" y="31" width="1" height="1" fill="#7C555E" />
<rect x="50" y="31" width="1" height="1" fill="#7C555E" />
</svg>