<?xml version="1.0" encoding="UTF-8" ?>
<svg version="1.1" width="68" height="34" xmlns="http://www.w3.org/2000/svg" shape-rendering="crispEdges">
<rect x="11" y="11" width="1" height="1" fill="#9F9D9E" />
<rect x="12" y="11" width="1" height="1" fill="#959192" />
<rect x="13" y="11" width="1" height="1" fill="#999596" />
<rect x="14" y="11" width="1" height="1" fill="#C8C8C8" />
<rect x="15" y="11" width="1" height="1" fill="#C8C8C8" />
<rect x="16" y="11" width="1" height="1" fill="#C9C9C9" />
<rect x="17" y="11" width="1" height="1" fill="#CCCCCC" />
<rect x="18" y="11" width="1" height="1" fill="#CCCCCC" />
<rect x="45" y="11" width="1" height="1" fill="#9F9D9E" />
<rect x="46" y="11" width="1" height="1" fill="#959192" />
<rect x="47" y="11" width="1" height="1" fill="#999596" />
<rect x="48" y="11" width="1" height="1" fill="#C8C8C8" />
<rect x="49" y="11" width="1" height="1" fill="#C8C8C8" />
<rect x="50" y="11" width="1" height="1" fill="#C9C9C9" />
<rect x="51" y="11" width="1" height="1" fill="#CCCCCC" />
<rect x="52" y="11" width="1" height="1" fill="#CCCCCC" />
<rect x="11" y="12" width="1" height="1" fill="#ACAAAB" />
<rect x="12" y="12" width="1" height="1" fill="#AEAEAE" />
<rect x="13" y="12" width="1" height="1" fill="#ACACAC" />
<rect x="14" y="12" width="1" height="1" fill="#ADADAD" />
<rect x="15" y="12" width="1" height="1" fill="#B1B1B1" />
<rect x="16" y="12" width="1" height="1" fill="#ACACAC" />
<rect x="17" y="12" width="1" height="1" fill="#CCCCCC" />
<rect x="18" y="12" width="1" height="1" fill="#CCCCCC" />
<rect x="19" y="12" width="1" height="1" fill="#CCCCCC" />
<rect x="20" y="12" width="1" height="1" fill="#CCCCCC" />
<rect x="21" y="12" width="1" height="1" fill="#CCCCCC" />
<rect x="22" y="12" width="1" height="1" fill="#CCCCCC" />
<rect x="23" y="12" width="1" height="1" fill="#CBCBCB" />
<rect x="45" y="12" width="1" height="1" fill="#ACAAAB" />
<rect x="46" y="12" width="1" height="1" fill="#AEAEAE" />
<rect x="47" y="12" width="1" height="1" fill="#ACACAC" />
<rect x="48" y="12" width="1" height="1" fill="#ADADAD" />
<rect x="49" y="12" width="1" height="1" fill="#B1B1B1" />
<rect x="50" y="12" width="1" height="1" fill="#ACACAC" />
<rect x="51" y="12" width="1" height="1" fill="#CCCCCC" />
<rect x="52" y="12" width="1" height="1" fill="#CCCCCC" />
<rect x="53" y="12" width="1" height="1" fill="#CCCCCC" />
<rect x="54" y="12" width="1" height="1" fill="#CCCCCC" />
<rect x="55" y="12" width="1" height="1" fill="#CCCCCC" />
<rect x="56" y="12" width="1" height="1" fill="#CCCCCC" />
<rect x="57" y="12" width="1" height="1" fill="#CBCBCB" />
<rect x="11" y="13" width="1" height="1" fill="#B1B1B1" />
<rect x="12" y="13" width="1" height="1" fill="#ADADAD" />
<rect x="13" y="13" width="1" height="1" fill="#ADADAD" />
<rect x="14" y="13" width="1" height="1" fill="#AEAEAE" />
<rect x="15" y="13" width="1" height="1" fill="#AFAFAF" />
<rect x="16" y="13" width="1" height="1" fill="#ADADAD" />
<rect x="17" y="13" width="1" height="1" fill="#CACACA" />
<rect x="18" y="13" width="1" height="1" fill="#CACACA" />
<rect x="19" y="13" width="1" height="1" fill="#CACACA" />
<rect x="20" y="13" width="1" height="1" fill="#CACACA" />
<rect x="21" y="13" width="1" height="1" fill="#C9C9C9" />
<rect x="22" y="13" width="1" height="1" fill="#CCCCCC" />
<rect x="23" y="13" width="1" height="1" fill="#CCCCCC" />
<rect x="24" y="13" width="1" height="1" fill="#CCCCCC" />
<rect x="45" y="13" width="1" height="1" fill="#B1B1B1" />
<rect x="46" y="13" width="1" height="1" fill="#ADADAD" />
<rect x="47" y="13" width="1" height="1" fill="#ADADAD" />
<rect x="48" y="13" width="1" height="1" fill="#AEAEAE" />
<rect x="49" y="13" width="1" height="1" fill="#AFAFAF" />
<rect x="50" y="13" width="1" height="1" fill="#ADADAD" />
<rect x="51" y="13" width="1" height="1" fill="#CACACA" />
<rect x="52" y="13" width="1" height="1" fill="#CACACA" />
<rect x="53" y="13" width="1" height="1" fill="#CACACA" />
<rect x="54" y="13" width="1" height="1" fill="#CACACA" />
<rect x="55" y="13" width="1" height="1" fill="#C9C9C9" />
<rect x="56" y="13" width="1" height="1" fill="#CCCCCC" />
<rect x="57" y="13" width="1" height="1" fill="#CCCCCC" />
<rect x="58" y="13" width="1" height="1" fill="#CCCCCC" />
<rect x="10" y="14" width="1" height="1" fill="#989495" />
<rect x="11" y="14" width="1" height="1" fill="#B6B4B5" />
<rect x="12" y="14" width="1" height="1" fill="#C4C4C4" />
<rect x="13" y="14" width="1" height="1" fill="#C6C6C6" />
<rect x="14" y="14" width="1" height="1" fill="#B0B0B0" />
<rect x="15" y="14" width="1" height="1" fill="#ADADAD" />
<rect x="16" y="14" width="1" height="1" fill="#AEAEAE" />
<rect x="17" y="14" width="1" height="1" fill="#A19D9E" />
<rect x="18" y="14" width="1" height="1" fill="#A19D9E" />
<rect x="19" y="14" width="1" height="1" fill="#A19D9E" />
<rect x="20" y="14" width="1" height="1" fill="#A19D9E" />
<rect x="21" y="14" width="1" height="1" fill="#A29E9F" />
<rect x="22" y="14" width="1" height="1" fill="#CACACA" />
<rect x="23" y="14" width="1" height="1" fill="#CCCCCC" />
<rect x="24" y="14" width="1" height="1" fill="#CCCCCC" />
<rect x="25" y="14" width="1" height="1" fill="#C5C5C5" />
<rect x="44" y="14" width="1" height="1" fill="#989495" />
<rect x="45" y="14" width="1" height="1" fill="#B6B4B5" />
<rect x="46" y="14" width="1" height="1" fill="#C4C4C4" />
<rect x="47" y="14" width="1" height="1" fill="#C6C6C6" />
<rect x="48" y="14" width="1" height="1" fill="#B0B0B0" />
<rect x="49" y="14" width="1" height="1" fill="#ADADAD" />
<rect x="54" y="14" width="1" height="1" fill="#A19D9E" />
<rect x="55" y="14" width="1" height="1" fill="#A29E9F" />
<rect x="56" y="14" width="1" height="1" fill="#CACACA" />
<rect x="57" y="14" width="1" height="1" fill="#CCCCCC" />
<rect x="58" y="14" width="1" height="1" fill="#CCCCCC" />
<rect x="59" y="14" width="1" height="1" fill="#C5C5C5" />
<rect x="9" y="15" width="1" height="1" fill="#938D8F" />
<rect x="10" y="15" width="1" height="1" fill="#958F91" />
<rect x="11" y="15" width="1" height="1" fill="#B7B5B6" />
<rect x="12" y="15" width="1" height="1" fill="#CCCCCC" />
<rect x="13" y="15" width="1" height="1" fill="#CCCCCC" />
<rect x="14" y="15" width="1" height="1" fill="#ACACAC" />
<rect x="15" y="15" width="1" height="1" fill="#AFAFAF" />
<rect x="16" y="15" width="1" height="1" fill="#B1AFB0" />
<rect x="17" y="15" width="1" height="1" fill="#928C8E" />
<rect x="18" y="15" width="1" height="1" fill="#938D8F" />
<rect x="19" y="15" width="1" height="1" fill="#938D8F" />
<rect x="20" y="15" width="1" height="1" fill="#928C8E" />
<rect x="21" y="15" width="1" height="1" fill="#938D8F" />
<rect x="22" y="15" width="1" height="1" fill="#C7C7C7" />
<rect x="23" y="15" width="1" height="1" fill="#CACACA" />
<rect x="24" y="15" width="1" height="1" fill="#CBCBCB" />
<rect x="25" y="15" width="1" height="1" fill="#CBCBCB" />
<rect x="26" y="15" width="1" height="1" fill="#CCCCCC" />
<rect x="43" y="15" width="1" height="1" fill="#938D8F" />
<rect x="44" y="15" width="1" height="1" fill="#958F91" />
<rect x="45" y="15" width="1" height="1" fill="#B7B5B6" />
<rect x="46" y="15" width="1" height="1" fill="#CCCCCC" />
<rect x="47" y="15" width="1" height="1" fill="#CCCCCC" />
<rect x="56" y="15" width="1" height="1" fill="#C7C7C7" />
<rect x="57" y="15" width="1" height="1" fill="#CACACA" />
<rect x="58" y="15" width="1" height="1" fill="#CBCBCB" />
<rect x="59" y="15" width="1" height="1" fill="#CBCBCB" />
<rect x="60" y="15" width="1" height="1" fill="#CCCCCC" />
<rect x="8" y="16" width="1" height="1" fill="#918B8D" />
<rect x="9" y="16" width="1" height="1" fill="#918B8D" />
<rect x="10" y="16" width="1" height="1" fill="#918B8D" />
<rect x="11" y="16" width="1" height="1" fill="#B9B7B8" />
<rect x="12" y="16" width="1" height="1" fill="#CDCDCD" />
<rect x="13" y="16" width="1" height="1" fill="#CDCDCD" />
<rect x="14" y="16" width="1" height="1" fill="#ADADAD" />
<rect x="15" y="16" width="1" height="1" fill="#AEAEAE" />
<rect x="16" y="16" width="1" height="1" fill="#B1AFB0" />
<rect x="17" y="16" width="1" height="1" fill="#928C8E" />
<rect x="18" y="16" width="1" height="1" fill="#938D8F" />
<rect x="19" y="16" width="1" height="1" fill="#938D8F" />
<rect x="20" y="16" width="1" height="1" fill="#938D8F" />
<rect x="21" y="16" width="1" height="1" fill="#928C8E" />
<rect x="22" y="16" width="1" height="1" fill="#C9C9C9" />
<rect x="23" y="16" width="1" height="1" fill="#CBCBCB" />
<rect x="24" y="16" width="1" height="1" fill="#CBCBCB" />
<rect x="25" y="16" width="1" height="1" fill="#CECECE" />
<rect x="26" y="16" width="1" height="1" fill="#CBCBCB" />
<rect x="42" y="16" width="1" height="1" fill="#918B8D" />
<rect x="43" y="16" width="1" height="1" fill="#918B8D" />
<rect x="44" y="16" width="1" height="1" fill="#918B8D" />
<rect x="45" y="16" width="1" height="1" fill="#B9B7B8" />
<rect x="46" y="16" width="1" height="1" fill="#CDCDCD" />
<rect x="57" y="16" width="1" height="1" fill="#CBCBCB" />
<rect x="58" y="16" width="1" height="1" fill="#CBCBCB" />
<rect x="59" y="16" width="1" height="1" fill="#CECECE" />
<rect x="60" y="16" width="1" height="1" fill="#CBCBCB" />
<rect x="8" y="17" width="1" height="1" fill="#AFAFAF" />
<rect x="9" y="17" width="1" height="1" fill="#ADADAD" />
<rect x="10" y="17" width="1" height="1" fill="#B0AEAF" />
<rect x="11" y="17" width="1" height="1" fill="#B0AEAF" />
<rect x="12" y="17" width="1" height="1" fill="#ADABAC" />
<rect x="13" y="17" width="1" height="1" fill="#AEAEAE" />
<rect x="14" y="17" width="1" height="1" fill="#908C8D" />
<rect x="15" y="17" width="1" height="1" fill="#928C8E" />
<rect x="16" y="17" width="1" height="1" fill="#928C8E" />
<rect x="17" y="17" width="1" height="1" fill="#938D8F" />
<rect x="18" y="17" width="1" height="1" fill="#938D8F" />
<rect x="19" y="17" width="1" height="1" fill="#938D8F" />
<rect x="20" y="17" width="1" height="1" fill="#938D8F" />
<rect x="21" y="17" width="1" height="1" fill="#938D8F" />
<rect x="22" y="17" width="1" height="1" fill="#938D8F" />
<rect x="23" y="17" width="1" height="1" fill="#938D8F" />
<rect x="24" y="17" width="1" height="1" fill="#928C8E" />
<rect x="25" y="17" width="1" height="1" fill="#AEACAD" />
<rect x="26" y="17" width="1" height="1" fill="#ADABAC" />
<rect x="27" y="17" width="1" height="1" fill="#AEACAD" />
<rect x="42" y="17" width="1" height="1" fill="#AFAFAF" />
<rect x="43" y="17" width="1" height="1" fill="#ADADAD" />
<rect x="44" y="17" width="1" height="1" fill="#B0AEAF" />
<rect x="45" y="17" width="1" height="1" fill="#B0AEAF" />
<rect x="58" y="17" width="1" height="1" fill="#928C8E" />
<rect x="59" y="17" width="1" height="1" fill="#AEACAD" />
<rect x="60" y="17" width="1" height="1" fill="#ADABAC" />
<rect x="61" y="17" width="1" height="1" fill="#AEACAD" />
<rect x="8" y="18" width="1" height="1" fill="#B0B0B0" />
<rect x="9" y="18" width="1" height="1" fill="#ADADAD" />
<rect x="10" y="18" width="1" height="1" fill="#ACAEAD" />
<rect x="11" y="18" width="1" height="1" fill="#ACAEAD" />
<rect x="12" y="18" width="1" height="1" fill="#B0AEAF" />
<rect x="13" y="18" width="1" height="1" fill="#B1B1B1" />
<rect x="14" y="18" width="1" height="1" fill="#8E8A8B" />
<rect x="15" y="18" width="1" height="1" fill="#949091" />
<rect x="16" y="18" width="1" height="1" fill="#949091" />
<rect x="17" y="18" width="1" height="1" fill="#958C8F" />
<rect x="18" y="18" width="1" height="1" fill="#958C8F" />
<rect x="19" y="18" width="1" height="1" fill="#958C8F" />
<rect x="20" y="18" width="1" height="1" fill="#938D8F" />
<rect x="21" y="18" width="1" height="1" fill="#938D8F" />
<rect x="22" y="18" width="1" height="1" fill="#938D8F" />
<rect x="23" y="18" width="1" height="1" fill="#938D8F" />
<rect x="24" y="18" width="1" height="1" fill="#928C8E" />
<rect x="25" y="18" width="1" height="1" fill="#AEB0AF" />
<rect x="26" y="18" width="1" height="1" fill="#ADAFAE" />
<rect x="27" y="18" width="1" height="1" fill="#ACAEAD" />
<rect x="42" y="18" width="1" height="1" fill="#B0B0B0" />
<rect x="43" y="18" width="1" height="1" fill="#ADADAD" />
<rect x="44" y="18" width="1" height="1" fill="#ACAEAD" />
<rect x="45" y="18" width="1" height="1" fill="#ACAEAD" />
<rect x="58" y="18" width="1" height="1" fill="#928C8E" />
<rect x="59" y="18" width="1" height="1" fill="#AEB0AF" />
<rect x="60" y="18" width="1" height="1" fill="#ADAFAE" />
<rect x="61" y="18" width="1" height="1" fill="#ACAEAD" />
<rect x="8" y="19" width="1" height="1" fill="#AFAFAF" />
<rect x="9" y="19" width="1" height="1" fill="#A9A9A9" />
<rect x="10" y="19" width="1" height="1" fill="#B0AEAF" />
<rect x="11" y="19" width="1" height="1" fill="#B0AEAF" />
<rect x="12" y="19" width="1" height="1" fill="#AFADAE" />
<rect x="13" y="19" width="1" height="1" fill="#B0B0B0" />
<rect x="14" y="19" width="1" height="1" fill="#908C8D" />
<rect x="15" y="19" width="1" height="1" fill="#908C8D" />
<rect x="16" y="19" width="1" height="1" fill="#908C8D" />
<rect x="17" y="19" width="1" height="1" fill="#8F8B8C" />
<rect x="18" y="19" width="1" height="1" fill="#8F8B8C" />
<rect x="19" y="19" width="1" height="1" fill="#8F8B8C" />
<rect x="20" y="19" width="1" height="1" fill="#8F8B8C" />
<rect x="21" y="19" width="1" height="1" fill="#8F8B8C" />
<rect x="22" y="19" width="1" height="1" fill="#938D8F" />
<rect x="23" y="19" width="1" height="1" fill="#938D8F" />
<rect x="24" y="19" width="1" height="1" fill="#928C8E" />
<rect x="25" y="19" width="1" height="1" fill="#AEACAD" />
<rect x="26" y="19" width="1" height="1" fill="#ACAAAB" />
<rect x="27" y="19" width="1" height="1" fill="#B1AFB0" />
<rect x="42" y="19" width="1" height="1" fill="#AFAFAF" />
<rect x="43" y="19" width="1" height="1" fill="#A9A9A9" />
<rect x="44" y="19" width="1" height="1" fill="#B0AEAF" />
<rect x="59" y="19" width="1" height="1" fill="#AEACAD" />
<rect x="60" y="19" width="1" height="1" fill="#ACAAAB" />
<rect x="61" y="19" width="1" height="1" fill="#B1AFB0" />
<rect x="8" y="20" width="1" height="1" fill="#AEAEAE" />
<rect x="9" y="20" width="1" height="1" fill="#958F91" />
<rect x="10" y="20" width="1" height="1" fill="#938D8F" />
<rect x="11" y="20" width="1" height="1" fill="#948E90" />
<rect x="12" y="20" width="1" height="1" fill="#908C8D" />
<rect x="13" y="20" width="1" height="1" fill="#938D8F" />
<rect x="14" y="20" width="1" height="1" fill="#AFADAE" />
<rect x="15" y="20" width="1" height="1" fill="#ACACAC" />
<rect x="16" y="20" width="1" height="1" fill="#ADADAD" />
<rect x="17" y="20" width="1" height="1" fill="#ACACAC" />
<rect x="18" y="20" width="1" height="1" fill="#ACACAC" />
<rect x="19" y="20" width="1" height="1" fill="#ACACAC" />
<rect x="20" y="20" width="1" height="1" fill="#AEAEAE" />
<rect x="21" y="20" width="1" height="1" fill="#AEAEAE" />
<rect x="22" y="20" width="1" height="1" fill="#948E90" />
<rect x="23" y="20" width="1" height="1" fill="#938D8F" />
<rect x="24" y="20" width="1" height="1" fill="#928C8E" />
<rect x="25" y="20" width="1" height="1" fill="#928C8E" />
<rect x="26" y="20" width="1" height="1" fill="#928C8E" />
<rect x="27" y="20" width="1" height="1" fill="#938D8F" />
<rect x="42" y="20" width="1" height="1" fill="#AEAEAE" />
<rect x="43" y="20" width="1" height="1" fill="#958F91" />
<rect x="44" y="20" width="1" height="1" fill="#938D8F" />
<rect x="59" y="20" width="1" height="1" fill="#928C8E" />
<rect x="60" y="20" width="1" height="1" fill="#928C8E" />
<rect x="61" y="20" width="1" height="1" fill="#938D8F" />
<rect x="8" y="21" width="1" height="1" fill="#AEAEAE" />
<rect x="9" y="21" width="1" height="1" fill="#928C8E" />
<rect x="10" y="21" width="1" height="1" fill="#938D8F" />
<rect x="11" y="21" width="1" height="1" fill="#948E90" />
<rect x="12" y="21" width="1" height="1" fill="#938F90" />
<rect x="13" y="21" width="1" height="1" fill="#938D8F" />
<rect x="14" y="21" width="1" height="1" fill="#AEACAD" />
<rect x="15" y="21" width="1" height="1" fill="#AFAFAF" />
<rect x="16" y="21" width="1" height="1" fill="#AFAFAF" />
<rect x="17" y="21" width="1" height="1" fill="#AFAFAF" />
<rect x="18" y="21" width="1" height="1" fill="#AFAFAF" />
<rect x="19" y="21" width="1" height="1" fill="#AFAFAF" />
<rect x="20" y="21" width="1" height="1" fill="#AEAEAE" />
<rect x="21" y="21" width="1" height="1" fill="#AEAEAE" />
<rect x="22" y="21" width="1" height="1" fill="#969092" />
<rect x="23" y="21" width="1" height="1" fill="#958F91" />
<rect x="24" y="21" width="1" height="1" fill="#948E90" />
<rect x="25" y="21" width="1" height="1" fill="#958F91" />
<rect x="26" y="21" width="1" height="1" fill="#958F91" />
<rect x="27" y="21" width="1" height="1" fill="#938D8F" />
<rect x="42" y="21" width="1" height="1" fill="#AEAEAE" />
<rect x="43" y="21" width="1" height="1" fill="#928C8E" />
<rect x="44" y="21" width="1" height="1" fill="#938D8F" />
<rect x="59" y="21" width="1" height="1" fill="#958F91" />
<rect x="60" y="21" width="1" height="1" fill="#958F91" />
<rect x="61" y="21" width="1" height="1" fill="#938D8F" />
<rect x="8" y="22" width="1" height="1" fill="#A2A2A2" />
<rect x="9" y="22" width="1" height="1" fill="#918B8D" />
<rect x="10" y="22" width="1" height="1" fill="#948E90" />
<rect x="11" y="22" width="1" height="1" fill="#9A9496" />
<rect x="12" y="22" width="1" height="1" fill="#9E9A9B" />
<rect x="13" y="22" width="1" height="1" fill="#A39D9F" />
<rect x="14" y="22" width="1" height="1" fill="#A4A2A3" />
<rect x="15" y="22" width="1" height="1" fill="#A0A0A0" />
<rect x="16" y="22" width="1" height="1" fill="#A0A0A0" />
<rect x="17" y="22" width="1" height="1" fill="#A0A0A0" />
<rect x="18" y="22" width="1" height="1" fill="#A0A0A0" />
<rect x="19" y="22" width="1" height="1" fill="#A0A0A0" />
<rect x="20" y="22" width="1" height="1" fill="#AFAFAF" />
<rect x="21" y="22" width="1" height="1" fill="#AFAFAF" />
<rect x="22" y="22" width="1" height="1" fill="#A19D9E" />
<rect x="23" y="22" width="1" height="1" fill="#9F9B9C" />
<rect x="24" y="22" width="1" height="1" fill="#9E9A9B" />
<rect x="25" y="22" width="1" height="1" fill="#9D9B9C" />
<rect x="26" y="22" width="1" height="1" fill="#9D9B9C" />
<rect x="42" y="22" width="1" height="1" fill="#A2A2A2" />
<rect x="43" y="22" width="1" height="1" fill="#918B8D" />
<rect x="44" y="22" width="1" height="1" fill="#948E90" />
<rect x="59" y="22" width="1" height="1" fill="#9D9B9C" />
<rect x="60" y="22" width="1" height="1" fill="#9D9B9C" />
<rect x="8" y="23" width="1" height="1" fill="#948E90" />
<rect x="9" y="23" width="1" height="1" fill="#948E90" />
<rect x="10" y="23" width="1" height="1" fill="#948E90" />
<rect x="11" y="23" width="1" height="1" fill="#A4A2A3" />
<rect x="12" y="23" width="1" height="1" fill="#AEAEAE" />
<rect x="13" y="23" width="1" height="1" fill="#AEAEAE" />
<rect x="14" y="23" width="1" height="1" fill="#918D8E" />
<rect x="15" y="23" width="1" height="1" fill="#958F91" />
<rect x="16" y="23" width="1" height="1" fill="#958F91" />
<rect x="17" y="23" width="1" height="1" fill="#938D8F" />
<rect x="18" y="23" width="1" height="1" fill="#938D8F" />
<rect x="19" y="23" width="1" height="1" fill="#9C9698" />
<rect x="20" y="23" width="1" height="1" fill="#ADADAD" />
<rect x="21" y="23" width="1" height="1" fill="#AEAEAE" />
<rect x="22" y="23" width="1" height="1" fill="#ADADAD" />
<rect x="23" y="23" width="1" height="1" fill="#ADADAD" />
<rect x="24" y="23" width="1" height="1" fill="#ADADAD" />
<rect x="25" y="23" width="1" height="1" fill="#ADADAD" />
<rect x="26" y="23" width="1" height="1" fill="#ACACAC" />
<rect x="42" y="23" width="1" height="1" fill="#948E90" />
<rect x="43" y="23" width="1" height="1" fill="#948E90" />
<rect x="44" y="23" width="1" height="1" fill="#948E90" />
<rect x="45" y="23" width="1" height="1" fill="#A4A2A3" />
<rect x="58" y="23" width="1" height="1" fill="#ADADAD" />
<rect x="59" y="23" width="1" height="1" fill="#ADADAD" />
<rect x="60" y="23" width="1" height="1" fill="#ACACAC" />
<rect x="8" y="24" width="1" height="1" fill="#938D8F" />
<rect x="9" y="24" width="1" height="1" fill="#938D8F" />
<rect x="10" y="24" width="1" height="1" fill="#948E90" />
<rect x="11" y="24" width="1" height="1" fill="#A4A2A3" />
<rect x="12" y="24" width="1" height="1" fill="#AEAEAE" />
<rect x="13" y="24" width="1" height="1" fill="#AFAFAF" />
<rect x="14" y="24" width="1" height="1" fill="#8F8B8C" />
<rect x="15" y="24" width="1" height="1" fill="#938D8F" />
<rect x="16" y="24" width="1" height="1" fill="#938D8F" />
<rect x="17" y="24" width="1" height="1" fill="#928C8E" />
<rect x="18" y="24" width="1" height="1" fill="#928C8E" />
<rect x="19" y="24" width="1" height="1" fill="#9B9597" />
<rect x="20" y="24" width="1" height="1" fill="#ADADAD" />
<rect x="21" y="24" width="1" height="1" fill="#AEAEAE" />
<rect x="22" y="24" width="1" height="1" fill="#AEAEAE" />
<rect x="23" y="24" width="1" height="1" fill="#AEAEAE" />
<rect x="24" y="24" width="1" height="1" fill="#AEAEAE" />
<rect x="25" y="24" width="1" height="1" fill="#ADADAD" />
<rect x="26" y="24" width="1" height="1" fill="#ACACAC" />
<rect x="42" y="24" width="1" height="1" fill="#938D8F" />
<rect x="43" y="24" width="1" height="1" fill="#938D8F" />
<rect x="44" y="24" width="1" height="1" fill="#948E90" />
<rect x="45" y="24" width="1" height="1" fill="#A4A2A3" />
<rect x="58" y="24" width="1" height="1" fill="#AEAEAE" />
<rect x="59" y="24" width="1" height="1" fill="#ADADAD" />
<rect x="60" y="24" width="1" height="1" fill="#ACACAC" />
<rect x="10" y="25" width="1" height="1" fill="#948E90" />
<rect x="11" y="25" width="1" height="1" fill="#B8B6B7" />
<rect x="12" y="25" width="1" height="1" fill="#CACACA" />
<rect x="13" y="25" width="1" height="1" fill="#CBCBCB" />
<rect x="14" y="25" width="1" height="1" fill="#CACACA" />
<rect x="15" y="25" width="1" height="1" fill="#CCCCCC" />
<rect x="16" y="25" width="1" height="1" fill="#CDCDCD" />
<rect x="17" y="25" width="1" height="1" fill="#ACACAC" />
<rect x="18" y="25" width="1" height="1" fill="#ADADAD" />
<rect x="19" y="25" width="1" height="1" fill="#A3A3A3" />
<rect x="20" y="25" width="1" height="1" fill="#928C8E" />
<rect x="21" y="25" width="1" height="1" fill="#928C8E" />
<rect x="22" y="25" width="1" height="1" fill="#ABABAB" />
<rect x="23" y="25" width="1" height="1" fill="#AEAEAE" />
<rect x="24" y="25" width="1" height="1" fill="#AEAEAE" />
<rect x="25" y="25" width="1" height="1" fill="#AEAEAE" />
<rect x="26" y="25" width="1" height="1" fill="#ADADAD" />
<rect x="44" y="25" width="1" height="1" fill="#948E90" />
<rect x="45" y="25" width="1" height="1" fill="#B8B6B7" />
<rect x="46" y="25" width="1" height="1" fill="#CACACA" />
<rect x="57" y="25" width="1" height="1" fill="#AEAEAE" />
<rect x="58" y="25" width="1" height="1" fill="#AEAEAE" />
<rect x="59" y="25" width="1" height="1" fill="#AEAEAE" />
<rect x="60" y="25" width="1" height="1" fill="#ADADAD" />
<rect x="11" y="26" width="1" height="1" fill="#B8B6B7" />
<rect x="12" y="26" width="1" height="1" fill="#CBCBCB" />
<rect x="13" y="26" width="1" height="1" fill="#CCCCCC" />
<rect x="14" y="26" width="1" height="1" fill="#CBCBCB" />
<rect x="15" y="26" width="1" height="1" fill="#CDCDCD" />
<rect x="16" y="26" width="1" height="1" fill="#CECECE" />
<rect x="17" y="26" width="1" height="1" fill="#ACACAC" />
<rect x="18" y="26" width="1" height="1" fill="#ADADAD" />
<rect x="19" y="26" width="1" height="1" fill="#A3A3A3" />
<rect x="20" y="26" width="1" height="1" fill="#938D8F" />
<rect x="21" y="26" width="1" height="1" fill="#928C8E" />
<rect x="22" y="26" width="1" height="1" fill="#ACACAC" />
<rect x="23" y="26" width="1" height="1" fill="#AFAFAF" />
<rect x="24" y="26" width="1" height="1" fill="#AEAEAE" />
<rect x="25" y="26" width="1" height="1" fill="#AEAEAE" />
<rect x="26" y="26" width="1" height="1" fill="#ADADAD" />
<rect x="45" y="26" width="1" height="1" fill="#B8B6B7" />
<rect x="46" y="26" width="1" height="1" fill="#CBCBCB" />
<rect x="47" y="26" width="1" height="1" fill="#CCCCCC" />
<rect x="56" y="26" width="1" height="1" fill="#ACACAC" />
<rect x="57" y="26" width="1" height="1" fill="#AFAFAF" />
<rect x="58" y="26" width="1" height="1" fill="#AEAEAE" />
<rect x="59" y="26" width="1" height="1" fill="#AEAEAE" />
<rect x="60" y="26" width="1" height="1" fill="#ADADAD" />
<rect x="11" y="27" width="1" height="1" fill="#B8B6B7" />
<rect x="12" y="27" width="1" height="1" fill="#CDCDCD" />
<rect x="13" y="27" width="1" height="1" fill="#CDCDCD" />
<rect x="14" y="27" width="1" height="1" fill="#CDCDCD" />
<rect x="15" y="27" width="1" height="1" fill="#CDCDCD" />
<rect x="16" y="27" width="1" height="1" fill="#CFCFCF" />
<rect x="17" y="27" width="1" height="1" fill="#ADADAD" />
<rect x="18" y="27" width="1" height="1" fill="#AEAEAE" />
<rect x="19" y="27" width="1" height="1" fill="#A4A4A4" />
<rect x="20" y="27" width="1" height="1" fill="#938D8F" />
<rect x="21" y="27" width="1" height="1" fill="#938D8F" />
<rect x="22" y="27" width="1" height="1" fill="#ADADAD" />
<rect x="23" y="27" width="1" height="1" fill="#AFAFAF" />
<rect x="24" y="27" width="1" height="1" fill="#AEAEAE" />
<rect x="25" y="27" width="1" height="1" fill="#ACACAC" />
<rect x="26" y="27" width="1" height="1" fill="#ABABAB" />
<rect x="45" y="27" width="1" height="1" fill="#B8B6B7" />
<rect x="46" y="27" width="1" height="1" fill="#CDCDCD" />
<rect x="47" y="27" width="1" height="1" fill="#CDCDCD" />
<rect x="48" y="27" width="1" height="1" fill="#CDCDCD" />
<rect x="49" y="27" width="1" height="1" fill="#CDCDCD" />
<rect x="54" y="27" width="1" height="1" fill="#938D8F" />
<rect x="55" y="27" width="1" height="1" fill="#938D8F" />
<rect x="56" y="27" width="1" height="1" fill="#ADADAD" />
<rect x="57" y="27" width="1" height="1" fill="#AFAFAF" />
<rect x="58" y="27" width="1" height="1" fill="#AEAEAE" />
<rect x="59" y="27" width="1" height="1" fill="#ACACAC" />
<rect x="60" y="27" width="1" height="1" fill="#ABABAB" />
<rect x="11" y="28" width="1" height="1" fill="#ADADAD" />
<rect x="12" y="28" width="1" height="1" fill="#AEAEAE" />
<rect x="13" y="28" width="1" height="1" fill="#AEAEAE" />
<rect x="14" y="28" width="1" height="1" fill="#AEAEAE" />
<rect x="15" y="28" width="1" height="1" fill="#AFAFAF" />
<rect x="16" y="28" width="1" height="1" fill="#AEAEAE" />
<rect x="17" y="28" width="1" height="1" fill="#ADADAD" />
<rect x="18" y="28" width="1" height="1" fill="#AEAEAE" />
<rect x="19" y="28" width="1" height="1" fill="#A3A3A3" />
<rect x="20" y="28" width="1" height="1" fill="#948E90" />
<rect x="21" y="28" width="1" height="1" fill="#948E90" />
<rect x="22" y="28" width="1" height="1" fill="#928C8E" />
<rect x="23" y="28" width="1" height="1" fill="#928C8E" />
<rect x="24" y="28" width="1" height="1" fill="#938D8F" />
<rect x="45" y="28" width="1" height="1" fill="#ADADAD" />
<rect x="46" y="28" width="1" height="1" fill="#AEAEAE" />
<rect x="47" y="28" width="1" height="1" fill="#AEAEAE" />
<rect x="48" y="28" width="1" height="1" fill="#AEAEAE" />
<rect x="49" y="28" width="1" height="1" fill="#AFAFAF" />
<rect x="50" y="28" width="1" height="1" fill="#AEAEAE" />
<rect x="51" y="28" width="1" height="1" fill="#ADADAD" />
<rect x="52" y="28" width="1" height="1" fill="#AEAEAE" />
<rect x="53" y="28" width="1" height="1" fill="#A3A3A3" />
<rect x="54" y="28" width="1" height="1" fill="#948E90" />
<rect x="55" y="28" width="1" height="1" fill="#948E90" />
<rect x="56" y="28" width="1" height="1" fill="#928C8E" />
<rect x="57" y="28" width="1" height="1" fill="#928C8E" />
<rect x="58" y="28" width="1" height="1" fill="#938D8F" />
<rect x="11" y="29" width="1" height="1" fill="#ACACAC" />
<rect x="12" y="29" width="1" height="1" fill="#AEAEAE" />
<rect x="13" y="29" width="1" height="1" fill="#AEAEAE" />
<rect x="14" y="29" width="1" height="1" fill="#AEAEAE" />
<rect x="15" y="29" width="1" height="1" fill="#AFAFAF" />
<rect x="16" y="29" width="1" height="1" fill="#AFAFAF" />
<rect x="17" y="29" width="1" height="1" fill="#ADADAD" />
<rect x="18" y="29" width="1" height="1" fill="#AEAEAE" />
<rect x="19" y="29" width="1" height="1" fill="#A3A3A3" />
<rect x="20" y="29" width="1" height="1" fill="#948E90" />
<rect x="21" y="29" width="1" height="1" fill="#948E90" />
<rect x="22" y="29" width="1" height="1" fill="#948E90" />
<rect x="23" y="29" width="1" height="1" fill="#938D8F" />
<rect x="45" y="29" width="1" height="1" fill="#ACACAC" />
<rect x="46" y="29" width="1" height="1" fill="#AEAEAE" />
<rect x="47" y="29" width="1" height="1" fill="#AEAEAE" />
<rect x="48" y="29" width="1" height="1" fill="#AEAEAE" />
<rect x="49" y="29" width="1" height="1" fill="#AFAFAF" />
<rect x="50" y="29" width="1" height="1" fill="#AFAFAF" />
<rect x="51" y="29" width="1" height="1" fill="#ADADAD" />
<rect x="52" y="29" width="1" height="1" fill="#AEAEAE" />
<rect x="53" y="29" width="1" height="1" fill="#A3A3A3" />
<rect x="54" y="29" width="1" height="1" fill="#948E90" />
<rect x="55" y="29" width="1" height="1" fill="#948E90" />
<rect x="56" y="29" width="1" height="1" fill="#948E90" />
<rect x="57" y="29" width="1" height="1" fill="#938D8F" />
<rect x="12" y="30" width="1" height="1" fill="#A29C9E" />
<rect x="13" y="30" width="1" height="1" fill="#A49EA0" />
<rect x="14" y="30" width="1" height="1" fill="#B1B1B1" />
<rect x="15" y="30" width="1" height="1" fill="#AEAEAE" />
<rect x="16" y="30" width="1" height="1" fill="#AEAEAE" />
<rect x="17" y="30" width="1" height="1" fill="#AEAEAE" />
<rect x="18" y="30" width="1" height="1" fill="#AEAEAE" />
<rect x="19" y="30" width="1" height="1" fill="#ACACAC" />
<rect x="20" y="30" width="1" height="1" fill="#9E9E9E" />
<rect x="21" y="30" width="1" height="1" fill="#9E9E9E" />
<rect x="22" y="30" width="1" height="1" fill="#9D9D9D" />
<rect x="23" y="30" width="1" height="1" fill="#9D9D9D" />
<rect x="46" y="30" width="1" height="1" fill="#A29C9E" />
<rect x="47" y="30" width="1" height="1" fill="#A49EA0" />
<rect x="48" y="30" width="1" height="1" fill="#B1B1B1" />
<rect x="49" y="30" width="1" height="1" fill="#AEAEAE" />
<rect x="50" y="30" width="1" height="1" fill="#AEAEAE" />
<rect x="51" y="30" width="1" height="1" fill="#AEAEAE" />
<rect x="52" y="30" width="1" height="1" fill="#AEAEAE" />
<rect x="53" y="30" width="1" height="1" fill="#ACACAC" />
<rect x="54" y="30" width="1" height="1" fill="#9E9E9E" />
<rect x="55" y="30" width="1" height="1" fill="#9E9E9E" />
<rect x="56" y="30" width="1" height="1" fill="#9D9D9D" />
<rect x="57" y="30" width="1" height="1" fill="#9D9D9D" />
<rect x="14" y="31" width="1" height="1" fill="#AFAFAF" />
<rect x="15" y="31" width="1" height="1" fill="#AEAEAE" />
<rect x="16" y="31" width="1" height="1" fill="#AEAEAE" />
<rect x="17" y="31" width="1" height="1" fill="#AEAEAE" />
<rect x="18" y="31" width="1" height="1" fill="#AEAEAE" />
<rect x="19" y="31" width="1" height="1" fill="#ADADAD" />
<rect x="20" y="31" width="1" height="1" fill="#ACACAC" />
<rect x="21" y="31" width="1" height="1" fill="#ACACAC" />
<rect x="22" y="31" width="1" height="1" fill="#ABABAB" />
<rect x="48" y="31" width="1" height="1" fill="#AFAFAF" />
<rect x="49" y="31" width="1" height="1" fill="#AEAEAE" />
<rect x="50" y="31" width="1" height="1" fill="#AEAEAE" />
<rect x="51" y="31" width="1" height="1" fill="#AEAEAE" />
<rect x="52" y="31" width="1" height="1" fill="#AEAEAE" />
<rect x="53" y="31" width="1" height="1" fill="#ADADAD" />
<rect x="54" y="31" width="1" height="1" fill="#ACACAC" />
<rect x="55" y="31" width="1" height="1" fill="#ACACAC" />
<rect x="56" y="31" width="1" height="1" fill="#ABABAB" />
</svg>